<svg xmlns="http://www.w3.org/2000/svg" viewBox="0 0 87.67 63.57"><defs><style>.cls-1{fill:#c58497;}.cls-2{fill:#f6afa0;}.cls-3{fill:#c48497;}</style></defs><title>Risorsa 4</title><g id="Livello_2" data-name="Livello 2"><g id="graduate"><path class="cls-1" d="M42.45,63.57A108,108,0,0,1,9.68,58.5L9,58.28V29.09l1.47.77c5.51,2.89,11.38,6.49,17.06,10C33,43.21,38.65,46.69,44,49.51c5.16-2.8,10.32-6,15.31-9.19,5.18-3.26,10.52-6.63,15.9-9.52L76.7,30l-.77,28.29-.68.22a108.27,108.27,0,0,1-30.91,5.06ZM11,56.81a106.18,106.18,0,0,0,33.33,4.75A106.42,106.42,0,0,0,74,56.8l.63-23.4C69.8,36.06,65,39.08,60.35,42c-5.18,3.26-10.52,6.62-15.9,9.51l-.46.25-.47-.24C38,48.64,32.13,45,26.46,41.55,21.31,38.38,16,35.13,11,32.41Z"/><rect class="cls-2" x="81.19" y="26.95" width="3" height="23.61"/><path class="cls-2" d="M44.19,51.66a3.53,3.53,0,0,1-1.85-.52L1.74,26.8A3.59,3.59,0,0,1,2,20.51L42.51.37a3.65,3.65,0,0,1,3.19,0l40,19.75a3.59,3.59,0,0,1,.3,6.26L46.08,51.12A3.62,3.62,0,0,1,44.19,51.66ZM43.4,2.16,2.88,22.3A1.57,1.57,0,0,0,2,23.66a1.6,1.6,0,0,0,.77,1.43l40.6,24.34a1.58,1.58,0,0,0,1.65,0l39.9-24.74a1.56,1.56,0,0,0,.74-1.42,1.54,1.54,0,0,0-.88-1.35l-40-19.75a1.62,1.62,0,0,0-1.41,0Z"/><path class="cls-3" d="M82.69,43.9h0a4,4,0,0,1,4,4V52a0,0,0,0,1,0,0h-8.1a0,0,0,0,1,0,0V47.95A4,4,0,0,1,82.69,43.9Z"/></g></g></svg>