<svg xmlns="http://www.w3.org/2000/svg" viewBox="0 0 137.21 124.32"><defs><style>.cls-1{fill:#f6afa0;}.cls-2{fill:#c58497;}</style></defs><title>Risorsa 3</title><g id="Livello_2" data-name="Livello 2"><g id="ux"><path class="cls-1" d="M49.24,55.15c-15.64,0-28.36-12.37-28.36-27.58S33.6,0,49.24,0,77.6,12.37,77.6,27.57,64.88,55.15,49.24,55.15ZM49.24,2C34.71,2,22.88,13.47,22.88,27.57S34.71,53.15,49.24,53.15,75.6,41.68,75.6,27.57,63.77,2,49.24,2Z"/><path class="cls-1" d="M98.48,124.32H0V102.39a49.24,49.24,0,1,1,98.48,0ZM2,122.32H96.48V102.39a47.24,47.24,0,1,0-94.48,0Z"/><path class="cls-1" d="M126.61,43.15H97.81v-2h28.8a8.61,8.61,0,0,0,8.6-8.6V14.79a8.61,8.61,0,0,0-8.6-8.6H97.81a8.61,8.61,0,0,0-8.6,8.6V31.71h-2V14.79a10.61,10.61,0,0,1,10.6-10.6h28.8a10.62,10.62,0,0,1,10.6,10.6V32.55A10.61,10.61,0,0,1,126.61,43.15Z"/><path class="cls-1" d="M98.81,43.16H78.35a1,1,0,0,1-.74-1.67L88,30l1.48,1.34-8.84,9.8H98.81a1,1,0,0,1,0,2Z"/><path class="cls-2" d="M124,25.78c-3.43,4.15-11.13,10.43-10.85,10.78a41.93,41.93,0,0,0-1.91-11.51c-1.44-4.74,0-9.55,3.69-11C124,10.53,128.67,20.16,124,25.78Z"/><path class="cls-2" d="M100.81,25.75c4.26,3.91,12.37,10.81,12.37,10.81a16.2,16.2,0,0,0-.85-11.65c-1.9-4.27,3-7.37-2.45-10.89C102.23,9.09,94.68,20.13,100.81,25.75Z"/></g></g></svg>