<svg xmlns="http://www.w3.org/2000/svg" viewBox="0 0 139.89 123.43"><defs><style>.cls-1{fill:#f6afa0;}.cls-2{fill:#c38497;}.cls-3{fill:#c48497;}</style></defs><title>Risorsa 1</title><g id="Livello_2" data-name="Livello 2"><g id="grafica"><path class="cls-1" d="M74,123.43c-18.9,0-61.29-27-69.85-49.5C-1.78,58.39-1.34,42.51,5.37,29.24c6.55-13,18.8-22.49,34.5-26.85C63-4,92.28,2.86,109.45,18.78c10,9.26,14.26,20.47,12.06,31.58h0c-3.68,18.57-16.84,31-39.14,37-2.46.66-4,1.73-4.82,3.28-1.68,3.32.45,8.73,2.5,14,.82,2.1,1.67,4.26,2.29,6.31,2.37,7.92-.87,10.85-4,11.91A13.36,13.36,0,0,1,74,123.43ZM58.25,2A66.54,66.54,0,0,0,40.41,4.32c-15.16,4.2-27,13.37-33.26,25.82C.7,42.91.3,58.21,6,73.22,10.18,84.16,22.94,97.16,40.13,108,56,118,71.05,123.17,77.7,120.91c1.24-.42,5-1.71,2.72-9.44-.59-2-1.42-4.1-2.23-6.15-2.22-5.64-4.5-11.47-2.42-15.59,1-2.06,3.08-3.51,6.09-4.31C103.35,79.66,116,67.73,119.55,50l1,.19-1-.19c2.64-13.33-4.77-23.52-11.46-29.72C95.59,8.66,76.5,2,58.25,2Z"/><ellipse class="cls-2" cx="37.9" cy="19.86" rx="10.14" ry="7.08" transform="translate(-4.04 11.39) rotate(-16.23)"/><ellipse class="cls-2" cx="70.69" cy="17.69" rx="7.08" ry="8.78" transform="translate(36.69 82.14) rotate(-76.23)"/><ellipse class="cls-2" cx="19.1" cy="43.34" rx="9.25" ry="7.08" transform="translate(-27.53 51.57) rotate(-76.23)"/><circle class="cls-2" cx="95.99" cy="27.63" r="7.08"/><circle class="cls-2" cx="16.87" cy="68.41" r="7.08"/><circle class="cls-2" cx="102.45" cy="52.02" r="8.53"/><ellipse class="cls-1" cx="98.08" cy="83.67" rx="4.53" ry="47.71" transform="translate(-22.59 129.04) rotate(-61.07)"/><path class="cls-3" d="M61.21,57.26c5.07-.67,6.88,4.75,4.65,8.31-2.46,3.93-4.22,5.12-8.32,2.59-1.47-.91-15.75-19.42-12.06-15.62C48,55.17,56.94,57.82,61.21,57.26Z"/></g></g></svg>