<svg xmlns="http://www.w3.org/2000/svg" viewBox="0 0 136.4 123.43"><defs><style>.cls-1{fill:#fff;}.cls-2{fill:#f6afa0;}.cls-3{fill:#c48497;}</style></defs><title>Risorsa 2</title><g id="Livello_2" data-name="Livello 2"><g id="web_design" data-name="web design"><path class="cls-1" d="M68.14,62.61C65.92,75.34,61,94,49.26,111.22a96.65,96.65,0,0,1-8.85,11.2L96,122.17a73.08,73.08,0,0,1-11.27-12.52C72.43,92.37,69.17,72.72,68.14,62.61Z"/><path class="cls-2" d="M38.13,123.43l1.55-1.69a96.49,96.49,0,0,0,8.75-11.08c9.2-13.53,15.5-29.75,18.73-48.22l1.25-7.13.73,7.2c1.27,12.51,5.15,30.74,16.4,46.56a71.4,71.4,0,0,0,11.11,12.35l2,1.74ZM67.94,68.87c-3.53,16.25-9.52,30.66-17.85,42.91a100.92,100.92,0,0,1-7.43,9.63l50.76-.23a74.23,74.23,0,0,1-9.51-11C74.14,96.5,69.82,81,67.94,68.87Z"/><rect class="cls-1" x="1" y="1" width="134.4" height="96.09" rx="6.77"/><path class="cls-2" d="M128.63,98.09H7.77A7.77,7.77,0,0,1,0,90.33V7.77A7.77,7.77,0,0,1,7.77,0H128.63a7.77,7.77,0,0,1,7.77,7.77V90.33A7.77,7.77,0,0,1,128.63,98.09ZM7.77,2A5.78,5.78,0,0,0,2,7.77V90.33a5.77,5.77,0,0,0,5.77,5.76H128.63a5.77,5.77,0,0,0,5.77-5.76V7.77A5.78,5.78,0,0,0,128.63,2Z"/><rect class="cls-3" x="7.99" y="8.28" width="120.43" height="14.18"/><rect class="cls-3" x="7.99" y="24.22" width="51.09" height="35.67"/><rect class="cls-3" x="66.28" y="24.22" width="62.13" height="19.47"/><rect class="cls-3" x="66.28" y="45.46" width="62.13" height="14.43"/><rect class="cls-3" x="7.99" y="62.61" width="88" height="14.56"/><rect class="cls-3" x="110.92" y="62.61" width="17.75" height="14.56"/><rect class="cls-3" x="32.14" y="81.13" width="17.75" height="11.72"/><rect class="cls-3" x="59.63" y="81.13" width="17.75" height="11.72"/><rect class="cls-3" x="86.51" y="81.13" width="17.75" height="11.72"/></g></g></svg>