<svg xmlns="http://www.w3.org/2000/svg" viewBox="0 0 84.32 64.21"><defs><style>.cls-1{fill:#f6afa0;}.cls-2{fill:#c58497;}</style></defs><title>Risorsa 5</title><g id="Livello_2" data-name="Livello 2"><g id="graduate"><path class="cls-1" d="M83.32,64.21H1a1,1,0,0,1-1-1V14.89a1,1,0,0,1,1-1H83.32a1,1,0,0,1,1,1V63.21A1,1,0,0,1,83.32,64.21ZM2,62.21H82.32V15.89H2Z"/><path class="cls-2" d="M55.84,15a1,1,0,0,1-1-1c0-6.62-5.69-12-12.68-12S29.48,7.39,29.48,14a1,1,0,1,1-2,0c0-7.73,6.59-14,14.68-14S56.84,6.28,56.84,14A1,1,0,0,1,55.84,15Z"/><path class="cls-1" d="M56.84,42.37H46.72a1,1,0,0,1,0-2H56.84A25.51,25.51,0,0,0,82.3,15.89H2.62a25.36,25.36,0,0,0,7.44,17,26.2,26.2,0,0,0,18,7.46h9.64a1,1,0,0,1,0,2H28.08a28.23,28.23,0,0,1-19.43-8,27.3,27.3,0,0,1-8-19.43,1,1,0,0,1,1-1H83.32a1,1,0,0,1,1,1A27.51,27.51,0,0,1,56.84,42.37Z"/><path class="cls-2" d="M45.61,46.54h-6.9a.76.76,0,0,1-.75-.75V36.31a.75.75,0,0,1,.75-.75h6.9a.75.75,0,0,1,.75.75v9.48A.76.76,0,0,1,45.61,46.54ZM39.46,45h5.4v-8h-5.4Z"/></g></g></svg>