<svg xmlns="http://www.w3.org/2000/svg" viewBox="0 0 29.62 46.96"><defs><style>.cls-1{fill:#f6afa0;}.cls-2{fill:#b0d0d3;}</style></defs><title>Risorsa 22</title><g id="Livello_2" data-name="Livello 2"><g id="worrk"><rect class="cls-1" x="1" y="38.66" width="27.62" height="1"/><rect class="cls-1" x="1" y="5.18" width="27.62" height="1"/><path class="cls-2" d="M25.4,47H4.22A4.22,4.22,0,0,1,0,42.74V4.22A4.22,4.22,0,0,1,4.22,0H25.4a4.22,4.22,0,0,1,4.22,4.22V42.74A4.22,4.22,0,0,1,25.4,47ZM4.22,2A2.23,2.23,0,0,0,2,4.22V42.74A2.23,2.23,0,0,0,4.22,45H25.4a2.22,2.22,0,0,0,2.22-2.22V4.22A2.22,2.22,0,0,0,25.4,2Z"/><circle class="cls-1" cx="14.81" cy="42.31" r="1.62"/><circle class="cls-1" cx="20.55" cy="3.6" r="0.81"/><rect class="cls-1" x="12.61" y="3.38" width="4.41" height="0.45"/><circle class="cls-1" cx="8.93" cy="3.6" r="0.81"/></g></g></svg>