<svg xmlns="http://www.w3.org/2000/svg" viewBox="0 0 51.64 45.22"><defs><style>.cls-1{fill:#b0d0d3;}.cls-2{fill:#f6afa0;}</style></defs><title>Risorsa 23</title><g id="Livello_2" data-name="Livello 2"><g id="worrk"><path class="cls-1" d="M44.07,35.45H29.36v-2H44.07a5.59,5.59,0,0,0,5.57-5.58V7.58A5.58,5.58,0,0,0,44.07,2H7.58A5.58,5.58,0,0,0,2,7.58V27.87a5.59,5.59,0,0,0,5.58,5.58H20.36v2H7.58A7.59,7.59,0,0,1,0,27.87V7.58A7.59,7.59,0,0,1,7.58,0H44.07a7.59,7.59,0,0,1,7.57,7.58V27.87A7.59,7.59,0,0,1,44.07,35.45Z"/><path class="cls-2" d="M24.29,16.62a5.79,5.79,0,1,1,5.79-5.79A5.79,5.79,0,0,1,24.29,16.62ZM24.29,6a4.79,4.79,0,1,0,4.79,4.79A4.8,4.8,0,0,0,24.29,6Z"/><path class="cls-2" d="M33.85,30.65H14.73V25.19a9.56,9.56,0,1,1,19.12,0Zm-18.12-1H32.85V25.19a8.56,8.56,0,1,0-17.12,0Z"/><path class="cls-2" d="M39.37,17.71H37.78V8.09l-1.62,1V7.43l1.62-1.08h1.59Z"/><path class="cls-1" d="M24.92,45.22A1,1,0,0,1,24,44.7l-5.28-9.78a1,1,0,0,1,1.76-1l4.4,8.15L29.32,34a1,1,0,0,1,1.76,1L25.8,44.7a1,1,0,0,1-.88.52Z"/></g></g></svg>