<svg xmlns="http://www.w3.org/2000/svg" viewBox="0 0 55.42 46.96"><defs><style>.cls-1{fill:#f6afa0;}.cls-2{fill:#b0d0d3;}</style></defs><title>Risorsa 21</title><g id="Livello_2" data-name="Livello 2"><g id="worrk"><path class="cls-1" d="M26.68,31.06A2.25,2.25,0,0,1,25,30.32L1.05,4,2.53,2.66,26.51,29a.26.26,0,0,0,.33,0l24-26.31L52.3,4l-24,26.31A2.24,2.24,0,0,1,26.68,31.06Z"/><path class="cls-2" d="M47.84,47H7.58A7.59,7.59,0,0,1,0,39.38V7.58A7.59,7.59,0,0,1,7.58,0H47.84a7.59,7.59,0,0,1,7.58,7.58v31.8A7.59,7.59,0,0,1,47.84,47ZM7.58,2A5.58,5.58,0,0,0,2,7.58v31.8A5.58,5.58,0,0,0,7.58,45H47.84a5.58,5.58,0,0,0,5.58-5.58V7.58A5.58,5.58,0,0,0,47.84,2Z"/></g></g></svg>