<svg xmlns="http://www.w3.org/2000/svg" xmlns:xlink="http://www.w3.org/1999/xlink" viewBox="0 0 54.32 47.6"><defs><style>.cls-1,.cls-5{fill:none;}.cls-2{fill:#c38497;}.cls-3{clip-path:url(#clip-path);}.cls-4{fill:#f8c8d3;}.cls-5{stroke:#c38497;stroke-miterlimit:10;stroke-width:2px;}</style><clipPath id="clip-path"><rect class="cls-1" x="1.92" y="2" width="52.32" height="45.6"/></clipPath></defs><title>Risorsa 30</title><g id="Livello_2" data-name="Livello 2"><g id="grafica"><g id="Photo"><rect class="cls-2" x="0.79" y="1.07" width="52.32" height="45.6"/><g class="cls-3"><path class="cls-4" d="M22.15,29.22l10.49-.17L25,16.05l-5.2,9.12A2.71,2.71,0,0,0,22.15,29.22Z"/><path class="cls-4" d="M14.7,28.2C8.3,35.32.16,43.21,1,47.1H27Z"/><path class="cls-4" d="M34.31,29,54.24,29c-2-5.53,1.18-27.47-.92-27.6C52.89.25,36.22,2.94,34,.55q-4.19,7.14-8.35,14.29"/><polyline class="cls-4" points="54.18 47.55 54.24 30.8 19.07 30.8 32.07 47.23"/><polyline class="cls-4" points="3.81 47.33 30.55 1 23.05 0.58 0.3 39.98"/></g><rect class="cls-5" x="1" y="1" width="52.32" height="45.6"/></g></g></g></svg>