<svg xmlns="http://www.w3.org/2000/svg" xmlns:xlink="http://www.w3.org/1999/xlink" viewBox="0 0 73.47 76.81"><defs><style>.cls-1,.cls-5{fill:none;}.cls-2{fill:#c38497;}.cls-3{clip-path:url(#clip-path);}.cls-4{fill:#f8c8d3;}.cls-5{stroke:#c38497;stroke-miterlimit:10;stroke-width:2px;}</style><clipPath id="clip-path"><rect class="cls-1" x="7.12" y="17.43" width="52.32" height="45.6"/></clipPath></defs><title>Risorsa 9</title><g id="Livello_2" data-name="Livello 2"><g id="grafica"><g id="Photo"><rect class="cls-2" x="6" y="16.5" width="52.32" height="45.6"/><g class="cls-3"><path class="cls-4" d="M27.35,44.65l10.5-.16-7.69-13L25,40.61A2.7,2.7,0,0,0,27.35,44.65Z"/><polygon class="cls-4" points="19.91 43.64 7.65 62.53 32.16 62.53 19.91 43.64"/><polyline class="cls-4" points="39.51 44.4 73.47 44.4 48.15 0 30.88 30.28"/><polygon class="cls-4" points="48.46 76.81 72.63 46.23 24.28 46.23 48.46 76.81"/><polygon class="cls-4" points="0 64.94 5.81 68.3 37.72 13.04 28.25 16.01 0 64.94"/></g><rect class="cls-5" x="6.2" y="16.43" width="52.32" height="45.6"/></g></g></g></svg>