<svg xmlns="http://www.w3.org/2000/svg" viewBox="0 0 54.32 47.6"><defs><style>.cls-1{fill:#c38497;}.cls-2{fill:#f8c8d3;}.cls-3,.cls-4{fill:none;}.cls-4{stroke:#c38497;stroke-miterlimit:10;stroke-width:2px;}</style></defs><title>Risorsa 29</title><g id="Livello_2" data-name="Livello 2"><g id="grafica"><g id="Photo"><rect class="cls-1" x="0.79" y="1.07" width="52.32" height="45.6"/><path class="cls-2" d="M30.52,18H25.28a1.39,1.39,0,0,0-1.19.68l-2.62,4.54a1.39,1.39,0,0,0,0,1.37l2.62,4.54a1.39,1.39,0,0,0,1.19.68h5.24a1.39,1.39,0,0,0,1.19-.68l2.62-4.54a1.39,1.39,0,0,0,0-1.37l-2.62-4.54A1.39,1.39,0,0,0,30.52,18Z"/><polygon class="cls-2" points="23.1 3.53 15.55 16.77 30.65 16.77 23.1 3.53"/><polygon class="cls-2" points="20.36 25.8 8.24 47.05 32.47 47.05 20.36 25.8"/><polygon class="cls-2" points="35.66 22.89 46.95 3.08 24.36 3.08 35.66 22.89"/><polyline class="cls-2" points="53.82 7.33 49.43 0.5 33.02 29.27 53.32 29.27"/><path class="cls-2" d="M51.59,46.36l1.73-3V30.94H25.5l9.06,15.88C40.32,46.94,45.72,46,51.59,46.36Z"/><polyline class="cls-2" points="0.79 46.67 6.02 47.05 23.1 17.46 14.88 18.27 0.45 43.28"/><rect class="cls-3" x="1.92" y="2" width="52.32" height="45.6"/><rect class="cls-4" x="1" y="1" width="52.32" height="45.6"/></g></g></g></svg>