<svg xmlns="http://www.w3.org/2000/svg" xmlns:xlink="http://www.w3.org/1999/xlink" viewBox="0 0 71.61 62.83"><defs><style>.cls-1,.cls-5{fill:none;}.cls-2{fill:#c38497;}.cls-3{clip-path:url(#clip-path);}.cls-4{fill:#f8c8d3;}.cls-5{stroke:#c38497;stroke-miterlimit:10;stroke-width:2px;}</style><clipPath id="clip-path"><rect class="cls-1" x="5.63" y="3.31" width="52.32" height="45.6"/></clipPath></defs><title>Risorsa 8</title><g id="Livello_2" data-name="Livello 2"><g id="grafica"><g id="Photo"><rect class="cls-2" x="4.5" y="2.38" width="52.32" height="45.6"/><g class="cls-3"><path class="cls-4" d="M34.23,19.26H29A1.37,1.37,0,0,0,27.8,20l-2.62,4.53a1.41,1.41,0,0,0,0,1.38l2.62,4.53a1.39,1.39,0,0,0,1.19.69h5.24a1.39,1.39,0,0,0,1.19-.69L38,25.86a1.41,1.41,0,0,0,0-1.38L35.42,20A1.37,1.37,0,0,0,34.23,19.26Z"/><polygon class="cls-4" points="26.81 4.85 19.26 18.09 34.36 18.09 26.81 4.85"/><polygon class="cls-4" points="24.07 27.11 11.95 48.36 36.19 48.36 24.07 27.11"/><polygon class="cls-4" points="39.37 24.2 50.66 4.4 28.07 4.4 39.37 24.2"/><polygon class="cls-4" points="54.17 0 36.73 30.58 71.61 30.58 54.17 0"/><polygon class="cls-4" points="46.65 62.83 64.09 32.25 29.21 32.25 46.65 62.83"/><polygon class="cls-4" points="0 51.79 5.81 55.15 26.81 18.77 18.59 19.59 0 51.79"/></g><rect class="cls-5" x="4.71" y="2.31" width="52.32" height="45.6"/></g></g></g></svg>