<svg xmlns="http://www.w3.org/2000/svg" viewBox="0 0 54.32 47.6"><defs><style>.cls-1{fill:none;stroke:#c38497;stroke-miterlimit:10;stroke-width:2px;}.cls-2{fill:#c38497;}.cls-3{fill:#f8c8d3;}</style></defs><title>Risorsa 7</title><g id="Livello_2" data-name="Livello 2"><g id="grafica"><rect class="cls-1" x="1" y="1" width="52.32" height="45.6"/><path class="cls-2" d="M35.87,37.54h-4l-2.78-7.9H16.8L14,37.54H10.2L20.52,9.19h5Zm-8-11.14-5-13.92L18,26.4Z"/><path class="cls-2" d="M41.51,12.71h-4V9h4Zm-.23,24.83H37.7V16.27h3.58Z"/><path class="cls-3" d="M25.55,9.19H22.09c0,1.73.1,3.46.17,5.18l.68-1.89,5,13.92H22.48c0,1.08-.09,2.16-.16,3.24h6.75l2.78,7.91h4Z"/><rect class="cls-3" x="39.49" y="16.27" width="1.79" height="21.27"/><path class="cls-3" d="M39.49,9v3.71h2V9Z"/></g></g></svg>