<svg xmlns="http://www.w3.org/2000/svg" viewBox="0 0 54.32 47.6"><defs><style>.cls-1{fill:none;stroke:#f8c8d3;stroke-miterlimit:10;stroke-width:2px;}.cls-2{fill:#f8c8d3;}.cls-3{fill:#f6afa0;}</style></defs><title>Risorsa 11</title><g id="Livello_2" data-name="Livello 2"><g id="grafica"><rect class="cls-1" x="1" y="1" width="52.32" height="45.6"/><path class="cls-2" d="M27.74,39H19.21a3.51,3.51,0,0,1-2.63-.83,3.7,3.7,0,0,1-.79-2.64v-21a3.67,3.67,0,0,1,.8-2.66,3.61,3.61,0,0,1,2.62-.81h9.05a21.53,21.53,0,0,1,3.46.25,7.43,7.43,0,0,1,2.63.95,7,7,0,0,1,1.75,1.5,6.61,6.61,0,0,1,1.17,2,6.84,6.84,0,0,1,.4,2.31c0,2.79-1.4,4.84-4.19,6.13Q39,26,39,31a7.67,7.67,0,0,1-1.2,4.22A7.22,7.22,0,0,1,34.54,38a11.11,11.11,0,0,1-2.93.75A29.12,29.12,0,0,1,27.74,39Zm-6.3-23.67v7.22h5.18a10.64,10.64,0,0,0,3.27-.4,3.17,3.17,0,0,0,1.76-1.53,3.4,3.4,0,0,0,.47-1.79A2.79,2.79,0,0,0,30.62,16,11.55,11.55,0,0,0,26,15.32Zm5.89,11.27H21.44v8.15h6.08c3.82,0,5.73-1.37,5.73-4.13a3.36,3.36,0,0,0-1.49-3.06A8.25,8.25,0,0,0,27.33,26.59Z"/><path class="cls-3" d="M33.48,24.21c2.79-1.29,4.19-3.34,4.19-6.13a6.84,6.84,0,0,0-.4-2.31,6.61,6.61,0,0,0-1.17-2,6.77,6.77,0,0,0-1.75-1.5,7.43,7.43,0,0,0-2.63-.95,19.62,19.62,0,0,0-2.38-.23c.12,1.52.16,3,.16,4.56a6.71,6.71,0,0,1,1.12.36,2.79,2.79,0,0,1,1.5,2.81,3.4,3.4,0,0,1-.47,1.79,3.14,3.14,0,0,1-1.76,1.53,6.3,6.3,0,0,1-.75.19c-.15,1.44-.35,2.88-.58,4.32a7,7,0,0,1,3.2.89,3.39,3.39,0,0,1,1.49,3.07c0,2.76-1.91,4.13-5.73,4.13h-.58c-.34,1.43-.7,2.85-1.08,4.25h1.88a29.12,29.12,0,0,0,3.87-.22A11.94,11.94,0,0,0,34.54,38a7.22,7.22,0,0,0,3.24-2.77A7.67,7.67,0,0,0,39,31Q39,26,33.48,24.21Z"/></g></g></svg>