<svg xmlns="http://www.w3.org/2000/svg" viewBox="0 0 54.32 47.6"><defs><style>.cls-1,.cls-2,.cls-4{fill:none;stroke-miterlimit:10;}.cls-1,.cls-2{stroke:#b0d0d3;}.cls-1{stroke-width:2px;}.cls-2,.cls-4{stroke-width:1.5px;}.cls-3{fill:#b0d0d3;}.cls-4{stroke:#f8c8d3;}.cls-5{fill:#f8c8d3;}.cls-6{fill:#afcfd2;}</style></defs><title>Risorsa 18</title><g id="Livello_2" data-name="Livello 2"><g id="ux"><rect class="cls-1" x="1" y="1" width="52.32" height="45.6"/><path class="cls-2" d="M31.41,32.53c.63-1,.56-3.16,1.47-5,1-2,2.19-2.46,2.92-4.44a9.87,9.87,0,0,0,.43-2.88,9.67,9.67,0,1,0-19.34,0,9.83,9.83,0,0,0,.44,2.88c.79,2.19,2.08,2.47,3,4.53s0,3.28.88,4.47"/><rect class="cls-3" x="20.1" y="31.57" width="12.92" height="1.92"/><path class="cls-2" d="M29.88,35A3.6,3.6,0,1,1,23,36.38a3.4,3.4,0,0,1,.18-1.11"/><rect class="cls-3" x="20.1" y="34.02" width="12.92" height="1.92"/><path class="cls-4" d="M31.41,32.53c.63-1,.56-3.16,1.47-5,1-2,2.19-2.46,2.92-4.44a9.87,9.87,0,0,0,.43-2.88,9.67,9.67,0,0,0-9.67-9.67"/><rect class="cls-5" x="24.45" y="31.57" width="8.57" height="1.92"/><rect class="cls-5" x="25.28" y="34.02" width="7.74" height="1.92"/><path class="cls-4" d="M29.88,35a3.61,3.61,0,0,1-3.32,5"/><rect class="cls-6" x="16.98" y="7.81" width="0.77" height="4.2" transform="translate(-2.39 13.01) rotate(-38.63)"/><rect class="cls-5" x="25.77" y="4.9" width="0.77" height="4.2"/><rect class="cls-6" x="34.72" y="7.37" width="0.77" height="4.2" transform="matrix(0.86, 0.51, -0.51, 0.86, 9.83, -16.67)"/><rect class="cls-5" x="39.95" y="13.84" width="0.77" height="4.2" transform="translate(38.32 -27.38) rotate(65.77)"/><rect class="cls-5" x="11.98" y="14.25" width="0.77" height="4.2" transform="translate(-6.4 24.61) rotate(-76.65)"/></g></g></svg>