<svg xmlns="http://www.w3.org/2000/svg" viewBox="0 0 54.32 47.6"><defs><style>.cls-1{fill:none;stroke:#f8c8d3;stroke-miterlimit:10;stroke-width:2px;}.cls-2{fill:#f8c8d3;}.cls-3{fill:#f6afa0;}</style></defs><title>Risorsa 13</title><g id="Livello_2" data-name="Livello 2"><g id="grafica"><rect class="cls-1" x="1" y="1" width="52.32" height="45.6"/><path class="cls-2" d="M22.88,29.78a.76.76,0,0,1-.2.41,5.92,5.92,0,0,1-4.78,2.14A6.35,6.35,0,0,1,13,30.25a7.22,7.22,0,0,1-1.85-5.08,7.42,7.42,0,0,1,1.81-5A6.1,6.1,0,0,1,17.72,18a6.4,6.4,0,0,1,5,1.94.59.59,0,0,1,.19.38,6,6,0,0,1-.68,1.38A8.06,8.06,0,0,1,21.34,23a.27.27,0,0,1-.2.07,2.72,2.72,0,0,1-.48-.39,5.67,5.67,0,0,0-1-.73,3.5,3.5,0,0,0-1.6-.39,2.82,2.82,0,0,0-2.3,1.07,3.91,3.91,0,0,0-.79,2.47,4,4,0,0,0,.79,2.49A2.78,2.78,0,0,0,18,28.69a3.62,3.62,0,0,0,1.61-.37,4.83,4.83,0,0,0,1-.69,2.87,2.87,0,0,1,.47-.37.29.29,0,0,1,.2.11c.1.12.39.53.85,1.22A7.39,7.39,0,0,1,22.88,29.78Z"/><path class="cls-2" d="M30.88,27.5a4.34,4.34,0,0,1-1.67,3.4,7.21,7.21,0,0,1-3.57,1.59h-.13c-.14,0-.48-.46-1-1.37a5.81,5.81,0,0,1-.77-1.68c0-.07.05-.12.14-.14a10.11,10.11,0,0,0,1.88-.54,1.61,1.61,0,0,0,1-1.51,2.3,2.3,0,0,0-.66-1.41c-.77-.89-1.18-1.38-1.25-1.48a3.93,3.93,0,0,1-.67-2.24,3.54,3.54,0,0,1,1.65-3,7.32,7.32,0,0,1,3.31-1.27h.16c.1,0,.18.08.24.23a27.28,27.28,0,0,0,1.18,2.58.22.22,0,0,1,0,.1c0,.11-.06.16-.18.16a1.49,1.49,0,0,1-.26,0l-.28,0a2.26,2.26,0,0,0-1.23.32,1.14,1.14,0,0,0-.64,1,2.54,2.54,0,0,0,.7,1.47l1.3,1.64A3.88,3.88,0,0,1,30.88,27.5Z"/><path class="cls-2" d="M39.44,27.5a4.34,4.34,0,0,1-1.67,3.4,7.21,7.21,0,0,1-3.57,1.59h-.12c-.15,0-.49-.46-1-1.37a6.14,6.14,0,0,1-.77-1.68c0-.07,0-.12.14-.14a10.11,10.11,0,0,0,1.88-.54,1.62,1.62,0,0,0,1-1.51,2.32,2.32,0,0,0-.67-1.41c-.77-.89-1.18-1.38-1.25-1.48a3.93,3.93,0,0,1-.67-2.24,3.54,3.54,0,0,1,1.65-3,7.36,7.36,0,0,1,3.31-1.27h.16c.1,0,.18.08.24.23a27.28,27.28,0,0,0,1.18,2.58.22.22,0,0,1,0,.1c0,.11-.06.16-.18.16a1.49,1.49,0,0,1-.26,0l-.28,0a2.26,2.26,0,0,0-1.23.32,1.14,1.14,0,0,0-.64,1,2.57,2.57,0,0,0,.71,1.47l1.29,1.64A3.88,3.88,0,0,1,39.44,27.5Z"/><path class="cls-3" d="M18,21.57a3.5,3.5,0,0,1,1.6.39,5.67,5.67,0,0,1,1,.73,2.72,2.72,0,0,0,.48.39.27.27,0,0,0,.2-.07,8.06,8.06,0,0,0,.85-1.34,6,6,0,0,0,.68-1.38.59.59,0,0,0-.19-.38,6.4,6.4,0,0,0-5-1.94l-.53,0c.21,1.2.47,2.39.71,3.59Z"/><path class="cls-3" d="M22.17,28.59c-.46-.69-.75-1.1-.85-1.22a.29.29,0,0,0-.2-.11,2.87,2.87,0,0,0-.47.37,4.83,4.83,0,0,1-1,.69,3.61,3.61,0,0,1-.82.28,15.21,15.21,0,0,1-.47,3.71,5.85,5.85,0,0,0,4.34-2.12.76.76,0,0,0,.2-.41A7.39,7.39,0,0,0,22.17,28.59Z"/><path class="cls-3" d="M30.88,27.5a3.88,3.88,0,0,0-.7-2.14l-1.3-1.64a2.54,2.54,0,0,1-.7-1.47,1.14,1.14,0,0,1,.64-1,2.26,2.26,0,0,1,1.23-.32l.28,0a1.49,1.49,0,0,0,.26,0c.12,0,.18-.05.18-.16a.22.22,0,0,0,0-.1,27.28,27.28,0,0,1-1.18-2.58c-.06-.15-.14-.23-.24-.23h-.16a7.86,7.86,0,0,0-2.36.71c.35,4.52,1.5,8.58,1.08,13.16a6.88,6.88,0,0,0,1.33-.86A4.34,4.34,0,0,0,30.88,27.5Z"/><path class="cls-3" d="M39.44,27.5a3.88,3.88,0,0,0-.7-2.14l-1.29-1.64a2.57,2.57,0,0,1-.71-1.47,1.14,1.14,0,0,1,.64-1,2.26,2.26,0,0,1,1.23-.32l.28,0a1.49,1.49,0,0,0,.26,0c.12,0,.18-.05.18-.16a.22.22,0,0,0,0-.1,27.28,27.28,0,0,1-1.18-2.58c-.06-.15-.14-.23-.24-.23h-.16a8.73,8.73,0,0,0-1.71.43,96.92,96.92,0,0,1,.69,13.3,6.46,6.46,0,0,0,1.07-.72A4.34,4.34,0,0,0,39.44,27.5Z"/></g></g></svg>