<svg xmlns="http://www.w3.org/2000/svg" viewBox="0 0 54.32 47.6"><defs><style>.cls-1{fill:#f6afa0;}.cls-2{fill:#c38497;}</style></defs><title>Risorsa 16</title><g id="Livello_2" data-name="Livello 2"><g id="grafica"><path class="cls-1" d="M54.32,47.6H0V0H54.32ZM2,45.6H52.32V2H2Z"/><rect class="cls-1" x="13.67" y="8.74" width="25.37" height="11.25" rx="4.74"/><path class="cls-2" d="M26.35,20H18.84a5.42,5.42,0,0,0-5.17,5.62h0a5.42,5.42,0,0,0,5.17,5.63h7.51"/><circle class="cls-1" cx="32.04" cy="25.67" r="5.69"/><path class="cls-2" d="M26.35,8.74H34.3A4.74,4.74,0,0,1,39,13.48v1.77A4.74,4.74,0,0,1,34.3,20H26.35"/><circle class="cls-1" cx="20.67" cy="36.92" r="5.69"/><polygon class="cls-1" points="26.31 31.24 20.91 31.24 26.31 36.64 26.31 31.24"/></g></g></svg>