<svg xmlns="http://www.w3.org/2000/svg" viewBox="0 0 54.32 47.6"><defs><style>.cls-1{fill:none;stroke:#f8c8d3;stroke-miterlimit:10;stroke-width:2px;}.cls-2{fill:#f8c8d3;}.cls-3{fill:#f6afa0;}</style></defs><title>Risorsa 12</title><g id="Livello_2" data-name="Livello 2"><g id="grafica"><rect class="cls-1" x="1" y="1" width="52.32" height="45.6"/><path class="cls-2" d="M16.48,30.73c0,.12,0,.19-.07.22a1,1,0,0,1-.24,0c-.33,0-.81.05-1.42.05A13.16,13.16,0,0,1,13.21,31c-.15,0-.22-.11-.22-.22q0-.66.06-2c0-.87.06-1.53.06-2,0-.21-.06-.34-.18-.37a16,16,0,0,0-2-.07,16.49,16.49,0,0,0-2,.07c-.12,0-.18.15-.18.37,0,.43,0,1.08,0,1.94s0,1.51,0,1.94a.25.25,0,0,1-.22.29A14,14,0,0,1,7,31,12.87,12.87,0,0,1,5.58,31c-.16,0-.24-.11-.24-.26q0-.9.09-2.7c.06-1.21.08-2.11.08-2.72s0-1.6-.08-2.89-.08-2.25-.08-2.89c0-.12.06-.19.17-.19l.78,0c.34,0,.6,0,.78,0s.44,0,.8,0l.8,0c.09,0,.14.05.14.15,0,.42,0,1-.09,1.87s-.09,1.45-.09,1.86c0,.19,0,.31.15.34a14.77,14.77,0,0,0,2.13.07A14.77,14.77,0,0,0,13,23.56c.13,0,.2-.15.2-.34,0-.4,0-1-.06-1.81s-.06-1.4-.06-1.81c0-.17.07-.26.21-.26l.73,0c.33,0,.58,0,.75,0s.4,0,.73,0l.74,0c.16,0,.24.07.24.2,0,.64,0,1.6-.08,2.88s-.07,2.25-.07,2.89,0,1.51.08,2.72S16.48,30.13,16.48,30.73Z"/><path class="cls-2" d="M26,21.88c0,.11-.06.17-.18.17s-1,0-2.5-.12c0,1.4,0,2.37,0,2.93s0,1.63.08,2.94.08,2.3.08,2.95a.22.22,0,0,1-.08.2l-.23,0a12.68,12.68,0,0,1-1.46.07,11.85,11.85,0,0,1-1.5-.07c-.16,0-.24-.11-.24-.26q0-1,.09-2.94c.05-1.3.08-2.28.08-2.93,0-.44,0-1.4-.07-2.89-1.1.11-2,.16-2.64.16-.09,0-.14,0-.14-.08a5,5,0,0,1,.12-.64c.09-.39.14-.62.15-.71,0-.25,0-.51.06-.77,0-.42.1-.63.2-.63h.11a32.5,32.5,0,0,0,4,.18c.5,0,1.41-.06,2.75-.16l1.09-.09c.11,0,.18,0,.19,0s0,.06,0,.16,0,.35,0,.62,0,.5,0,.62a4.51,4.51,0,0,0,.06.61C26,21.55,26,21.75,26,21.88Z"/><path class="cls-2" d="M39.15,30.73c0,.17-.08.26-.24.26H36c-.16,0-.24-.1-.24-.29,0-.56,0-1.4.07-2.52s.06-1.95.06-2.51c0-.16,0-.25-.08-.26A25.15,25.15,0,0,0,34.67,28l-1.2,2.94a.34.34,0,0,1-.2.23h-.33c-.29,0-.46-.06-.52-.17-.3-.61-.69-1.49-1.18-2.66s-.91-2.11-1.17-2.66a.18.18,0,0,0-.07-.09.38.38,0,0,0-.06.24c0,.54,0,1.35,0,2.44s0,1.9,0,2.44c0,.19-.08.29-.23.29H27a.32.32,0,0,1-.21,0,.44.44,0,0,1,0-.19c0-.6,0-1.51.08-2.72s.09-2.11.09-2.72,0-1.84-.08-3.61c0-.46,0-1.14-.08-2.05v-.14c0-.11.12-.17.35-.17l1.37,0,1.37,0c.06,0,.15.11.26.34L32.55,25c.17.37.32.54.44.54s.19-.2.39-.62q.82-1.74,2.48-5.25.14-.33.3-.33l.73,0c.33,0,.57,0,.74,0a6.29,6.29,0,0,0,.63,0l.64,0c.16,0,.24.07.24.2,0,.65,0,1.63-.07,2.93S39,24.66,39,25.31s0,1.51.08,2.72S39.15,30.13,39.15,30.73Z"/><path class="cls-2" d="M48.22,31.13l-1.86,0-1.86,0L42,31c-.25,0-.6,0-1.07,0-.16,0-.24-.11-.24-.26,0-.6,0-1.5,0-2.71s0-2.1,0-2.71,0-1.6-.06-2.88-.06-2.24-.06-2.89c0-.12.09-.18.25-.18l.74,0,.74,0,.81,0,.82,0c.08,0,.12.06.11.16v.11c-.06,1-.14,2.6-.22,4.69V26.5c0,.71,0,1.23,0,1.55,0,.07,0,.13,0,.2s0,.11.12.12h.22c.5,0,1.24,0,2.23-.07s1.74-.08,2.24-.08c.15,0,.23.06.23.19a12.43,12.43,0,0,1-.21,2.45.31.31,0,0,1-.18.26Z"/><path class="cls-3" d="M16.39,28c-.05-1.21-.08-2.11-.08-2.72s0-1.6.08-2.89.07-2.24.07-2.88c0-.13-.08-.2-.24-.2l-.74,0c-.33,0-.57,0-.73,0s-.42,0-.75,0l-.73,0c-.14,0-.21.09-.21.26,0,.41,0,1,.06,1.81s.06,1.41.06,1.81c0,.19-.07.31-.2.34a6,6,0,0,1-.93.06,15.46,15.46,0,0,1-.31,2.77,9.31,9.31,0,0,1,1.19.06c.12,0,.18.16.18.37,0,.44,0,1.1-.06,2s-.06,1.54-.06,2c0,.11.07.19.22.22a13.16,13.16,0,0,0,1.54.05c.61,0,1.09,0,1.42-.05a1,1,0,0,0,.24,0c.05,0,.07-.1.07-.22Q16.48,29.83,16.39,28Z"/><path class="cls-3" d="M25.94,21.28a4.51,4.51,0,0,1-.06-.61c0-.12,0-.33,0-.62s0-.47,0-.62,0-.15,0-.16-.08,0-.19,0l-1.09.09c-1.26.1-2.14.15-2.65.15.46,3.89-.77,7.52-.42,11.58h.12A12.68,12.68,0,0,0,23.11,31l.23,0a.22.22,0,0,0,.08-.2c0-.65,0-1.64-.08-2.95s-.08-2.29-.08-2.94,0-1.53,0-2.93c1.45.08,2.29.12,2.5.12S26,22,26,21.88,26,21.55,25.94,21.28Z"/><path class="cls-3" d="M39.08,28c0-1.21-.08-2.11-.08-2.72s0-1.63.07-2.92.07-2.28.07-2.93c0-.13-.08-.2-.24-.2l-.64,0a6.29,6.29,0,0,1-.63,0c-.17,0-.41,0-.74,0l-.72,0c-.12,0-.22.11-.31.33q-1.65,3.51-2.48,5.25c-.1.21-.19.37-.25.47a30.78,30.78,0,0,1,.81,4.44l.73-1.8a25.15,25.15,0,0,1,1.11-2.57s.08.1.08.26c0,.56,0,1.4-.06,2.51s-.07,2-.07,2.52c0,.19.08.29.24.29h2.94c.16,0,.24-.09.24-.26C39.15,30.13,39.13,29.23,39.08,28Z"/><path class="cls-3" d="M48.72,28.22c-.5,0-1.24,0-2.24.08s-1.73.07-2.23.07H44q-.12,0-.12-.12c0-.07,0-.13,0-.2,0-.32,0-.84,0-1.55V24.31c.08-2.09.16-3.65.22-4.69v-.11c0-.1,0-.16-.11-.16l-.82,0h-.25C43.37,23.3,44.06,27,43,31l1.48,0,1.85,0,1.86,0h.34a.31.31,0,0,0,.18-.26A12.43,12.43,0,0,0,49,28.41C49,28.28,48.87,28.22,48.72,28.22Z"/></g></g></svg>