<svg xmlns="http://www.w3.org/2000/svg" viewBox="0 0 54.32 47.6"><defs><style>.cls-1{fill:none;stroke:#f6afa0;stroke-miterlimit:10;stroke-width:2px;}.cls-2{fill:#f6afa0;}.cls-3{fill:#c38497;}</style></defs><title>Risorsa 15</title><g id="Livello_2" data-name="Livello 2"><g id="grafica"><rect class="cls-1" x="1" y="1" width="52.32" height="45.6"/><path class="cls-2" d="M23,27.7v1.82a25.56,25.56,0,0,1-4.5,4.69,6.36,6.36,0,0,1-3.56,1.58,3.21,3.21,0,0,1-3-2.14,10.89,10.89,0,0,1-1-4.68,8.62,8.62,0,0,1,.2-1.86,7.06,7.06,0,0,1,.47-1.45q.29-.57,1-1.8c2.36-3.66,4.52-5.5,6.48-5.5,1,0,1.52.39,1.52,1.17a5.89,5.89,0,0,1-1,2.49,10.91,10.91,0,0,1-1.75,2.42A37.39,37.39,0,0,0,15,27.35a2.91,2.91,0,0,0-.66,1.87A1.93,1.93,0,0,0,15,30.71a2.53,2.53,0,0,0,1.75.6,5.08,5.08,0,0,0,2.58-.86A32,32,0,0,0,23,27.7ZM21.31,16.57a1.83,1.83,0,0,1-1.18-.47,1.5,1.5,0,0,1-.56-1.2,4.18,4.18,0,0,1,1-2.44,2.86,2.86,0,0,1,2.17-1.35,1.74,1.74,0,0,1,1.24.47,1.68,1.68,0,0,1,.5,1.33,4,4,0,0,1-1,2.36A2.83,2.83,0,0,1,21.31,16.57Z"/><path class="cls-2" d="M39.77,23.19c-2.92,3.26-4.39,5.52-4.39,6.8,0,.72.29,1.07.88,1.07a3.76,3.76,0,0,0,1.88-.76q1.15-.75,3.62-2.7v1.72q-3.54,3.48-5.43,5a5.49,5.49,0,0,1-3.09,1.54c-1.36,0-2-.89-2-2.69a5,5,0,0,1,.25-1.57,11.08,11.08,0,0,1,.68-1.6c.3-.56.74-1.35,1.34-2.39s1.28-2.21,2.06-3.53A16.1,16.1,0,0,0,32,27a26.47,26.47,0,0,0-2.36,2.55c-.65.81-1.34,1.7-2.08,2.69a20.86,20.86,0,0,1-1.62,2,1.49,1.49,0,0,1-1,.51c-.54,0-1-.55-1.47-1.67a10.26,10.26,0,0,1-.68-3.88A5.81,5.81,0,0,1,23.05,27a12.75,12.75,0,0,1,1.23-2.19,24.55,24.55,0,0,1,3-3.88,3.54,3.54,0,0,1,2.39-1.23,2.57,2.57,0,0,1,1.29.28.9.9,0,0,1,.48.84,1.06,1.06,0,0,1-.15.52,3.09,3.09,0,0,1-.33.5c-.13.15-.39.44-.79.87-2.62,2.91-3.93,4.79-3.93,5.66,0,.48.15.72.47.72s.58-.32,1.16-1L30,25.65a39.12,39.12,0,0,1,3.22-3.25,34.24,34.24,0,0,1,4.22-3.27,4.19,4.19,0,0,1,2.19-.92c.26,0,.52.37.78,1.1a6.56,6.56,0,0,1,.39,2.21C40.84,21.89,40.48,22.45,39.77,23.19Z"/><path class="cls-3" d="M19.35,30.45a5,5,0,0,1-2.57.86,2.53,2.53,0,0,1-1.75-.6,1.93,1.93,0,0,1-.67-1.49A2.91,2.91,0,0,1,15,27.35a37.39,37.39,0,0,1,2.83-2.91A10.91,10.91,0,0,0,19.6,22a5.89,5.89,0,0,0,1-2.49c0-.78-.51-1.17-1.52-1.17a3.49,3.49,0,0,0-.44.05c-2,5.69-6.35,10.18-6,16.39a3,3,0,0,0,2.28,1,6.36,6.36,0,0,0,3.57-1.58A25.56,25.56,0,0,0,23,29.52V27.7A31,31,0,0,1,19.35,30.45Z"/><path class="cls-3" d="M24,11.58a1.74,1.74,0,0,0-1.24-.47l-.09,0a10.56,10.56,0,0,1-2.55,5,1.8,1.8,0,0,0,1.17.47,2.83,2.83,0,0,0,2.19-1.3,4,4,0,0,0,1-2.36A1.68,1.68,0,0,0,24,11.58Z"/><path class="cls-3" d="M32.13,30a10.63,10.63,0,0,0-.68,1.6,5,5,0,0,0-.25,1.57,6.39,6.39,0,0,0,.06.81,29.41,29.41,0,0,0,1.93-5.89C32.73,28.92,32.38,29.56,32.13,30Z"/><path class="cls-3" d="M38.14,30.3a3.76,3.76,0,0,1-1.88.76c-.59,0-.88-.36-.88-1.07,0-1.28,1.47-3.54,4.39-6.8.71-.74,1.07-1.3,1.07-1.67a6.56,6.56,0,0,0-.39-2.21c-.26-.73-.52-1.1-.78-1.1a4.19,4.19,0,0,0-2.19.92c-.8.53-1.56,1.08-2.27,1.63a34.5,34.5,0,0,0-1.35,4.49,10.17,10.17,0,0,1,1.67-1.14c-.78,1.32-1.47,2.49-2.06,3.53l-.28.48A29.41,29.41,0,0,1,31.26,34c.19,1.25.85,1.88,2,1.88a5.49,5.49,0,0,0,3.09-1.54q1.89-1.55,5.43-5V27.6Q39.3,29.55,38.14,30.3Z"/></g></g></svg>