<svg xmlns="http://www.w3.org/2000/svg" viewBox="0 0 54.32 47.6"><defs><style>.cls-1{fill:#c38497;}.cls-2{fill:#f8c8d3;}</style></defs><title>Risorsa 6</title><g id="Livello_2" data-name="Livello 2"><g id="grafica"><path class="cls-1" d="M54.32,47.6H0V0H54.32ZM2,45.6H52.32V2H2Z"/><path class="cls-1" d="M28.51,17.76a9.08,9.08,0,0,1-.66,3.49A8.23,8.23,0,0,1,26,24a9.35,9.35,0,0,1-3.46,2.2A14.8,14.8,0,0,1,17.5,27H13.73V37.54H10V9.19h7.69A18.44,18.44,0,0,1,22,9.62,9.56,9.56,0,0,1,25.12,11a7.61,7.61,0,0,1,2.5,2.71A8.43,8.43,0,0,1,28.51,17.76Zm-3.92.09a5.84,5.84,0,0,0-.52-2.55,4.28,4.28,0,0,0-1.56-1.77,6.55,6.55,0,0,0-2.08-.85,14.36,14.36,0,0,0-3-.25H13.73V23.76h3.18a14,14,0,0,0,3.72-.41A5.23,5.23,0,0,0,23,22a5.48,5.48,0,0,0,1.27-1.92A6.71,6.71,0,0,0,24.59,17.85Z"/><path class="cls-1" d="M46.17,31.41a5.79,5.79,0,0,1-2.41,4.78,10.46,10.46,0,0,1-6.58,1.87,15.88,15.88,0,0,1-4.33-.56,20.08,20.08,0,0,1-3.31-1.23v-4h.19a14.4,14.4,0,0,0,3.77,2,11.73,11.73,0,0,0,4,.75,7.48,7.48,0,0,0,3.7-.76,2.57,2.57,0,0,0,1.33-2.4,2.41,2.41,0,0,0-.72-1.9A6.52,6.52,0,0,0,39,28.86c-.51-.11-1.17-.25-2-.4s-1.57-.32-2.24-.49a7.51,7.51,0,0,1-4-2.18,5.43,5.43,0,0,1-1.17-3.54,5.78,5.78,0,0,1,.54-2.47,5.9,5.9,0,0,1,1.65-2.08,8,8,0,0,1,2.71-1.42,12.14,12.14,0,0,1,3.69-.52,16.54,16.54,0,0,1,3.85.47,14.72,14.72,0,0,1,3.25,1.13v3.83h-.19a13,13,0,0,0-3.33-1.71A11.56,11.56,0,0,0,38,18.79a6.72,6.72,0,0,0-3.31.75,2.41,2.41,0,0,0-1.36,2.24,2.44,2.44,0,0,0,.82,2,6.54,6.54,0,0,0,2.59,1.08c.66.16,1.4.31,2.22.46s1.5.29,2,.42a7.53,7.53,0,0,1,3.84,2A5.13,5.13,0,0,1,46.17,31.41Z"/><path class="cls-2" d="M27.62,13.66a7.58,7.58,0,0,0-2.5-2.7A9.56,9.56,0,0,0,22,9.62a18.44,18.44,0,0,0-4.33-.43h0c0,1.08,0,2.16.05,3.24a13.59,13.59,0,0,1,2.73.25,6.29,6.29,0,0,1,2.09.85,4.28,4.28,0,0,1,1.56,1.77,6,6,0,0,1,.52,2.55,6.47,6.47,0,0,1-.38,2.27A5.45,5.45,0,0,1,23,22a5.33,5.33,0,0,1-2.32,1.31,12.64,12.64,0,0,1-2.85.39c0,1.07,0,2.15-.05,3.23a14.6,14.6,0,0,0,4.82-.73A9.35,9.35,0,0,0,26,24a8.23,8.23,0,0,0,1.84-2.79,9.11,9.11,0,0,0,.66-3.49A8.49,8.49,0,0,0,27.62,13.66Z"/><path class="cls-2" d="M42.08,16.23a14.78,14.78,0,0,0-2.16-.37c-.08,1-.16,2.05-.25,3.07a13.76,13.76,0,0,1,2.14.55,13,13,0,0,1,3.33,1.71h.19V17.36A14.22,14.22,0,0,0,42.08,16.23Z"/><path class="cls-2" d="M44.81,27.68a7.53,7.53,0,0,0-3.84-2c-.55-.13-1.23-.27-2-.42h0c-.17,1.15-.38,2.28-.61,3.41l.7.15A6.67,6.67,0,0,1,41.79,30a2.45,2.45,0,0,1,.72,1.91,2.57,2.57,0,0,1-1.33,2.4,7.48,7.48,0,0,1-3.7.76,8.77,8.77,0,0,1-.88,0c-.35,1-.74,2-1.17,3,.56.05,1.14.09,1.75.09a10.46,10.46,0,0,0,6.58-1.87,5.8,5.8,0,0,0,2.41-4.78A5.13,5.13,0,0,0,44.81,27.68Z"/></g></g></svg>