<svg xmlns="http://www.w3.org/2000/svg" viewBox="0 0 54.32 47.6"><defs><style>.cls-1,.cls-2,.cls-3,.cls-4{fill:none;stroke-miterlimit:10;}.cls-1,.cls-2{stroke:#b0d0d3;}.cls-1{stroke-width:2px;}.cls-2,.cls-3{stroke-width:1.5px;}.cls-3,.cls-4{stroke:#f8c8d3;}</style></defs><title>Risorsa 17</title><g id="Livello_2" data-name="Livello 2"><g id="ux"><rect class="cls-1" x="1" y="1" width="52.32" height="45.6"/><circle class="cls-2" cx="27.16" cy="9.38" r="3.82"/><path class="cls-2" d="M27.16,13.48h0a6.08,6.08,0,0,1,6.08,6.08v3.61a0,0,0,0,1,0,0H21.08a0,0,0,0,1,0,0V19.56A6.08,6.08,0,0,1,27.16,13.48Z"/><path class="cls-3" d="M27.16,5.56a3.82,3.82,0,1,1,0,7.64"/><path class="cls-3" d="M28.06,13.55a6.08,6.08,0,0,1,5.18,6v3.61h-5.1"/><circle class="cls-2" cx="11.72" cy="26.38" r="3.82"/><path class="cls-2" d="M11.72,30.48h0a6.08,6.08,0,0,1,6.08,6.08v3.61a0,0,0,0,1,0,0H5.65a0,0,0,0,1,0,0V36.55A6.08,6.08,0,0,1,11.72,30.48Z"/><path class="cls-3" d="M11.72,22.56a3.82,3.82,0,0,1,0,7.64"/><path class="cls-3" d="M12.63,30.54a6.08,6.08,0,0,1,5.17,6v3.61H12.7"/><circle class="cls-2" cx="42.9" cy="26.49" r="3.82"/><path class="cls-2" d="M42.9,30.59h0A6.08,6.08,0,0,1,49,36.67v3.61a0,0,0,0,1,0,0H36.82a0,0,0,0,1,0,0V36.67a6.08,6.08,0,0,1,6.08-6.08Z"/><path class="cls-3" d="M42.9,22.67a3.82,3.82,0,1,1,0,7.64"/><path class="cls-3" d="M43.8,30.66a6.08,6.08,0,0,1,5.18,6v3.61h-5.1"/><path class="cls-4" d="M10.93,20a6,6,0,0,1,1-2.9,5.55,5.55,0,0,1,7.61-1.89"/><path class="cls-4" d="M35.11,14.39a6,6,0,0,1,3-.3A5.55,5.55,0,0,1,43,20.28"/><path class="cls-4" d="M32.22,39.21a6,6,0,0,1-2.34,2,5.54,5.54,0,0,1-7.47-2.39"/></g></g></svg>