<svg xmlns="http://www.w3.org/2000/svg" viewBox="0 0 54.32 47.6"><defs><style>.cls-1,.cls-2,.cls-6{fill:none;stroke-miterlimit:10;}.cls-1,.cls-2{stroke:#b0d0d3;}.cls-1{stroke-width:2px;}.cls-3{fill:#b0d0d3;}.cls-4{fill:#f7c7d2;}.cls-5{fill:#f8c8d3;}.cls-6{stroke:#f8c8d3;}</style></defs><title>Risorsa 19</title><g id="Livello_2" data-name="Livello 2"><g id="ux"><rect class="cls-1" x="1" y="1" width="52.32" height="45.6"/><rect class="cls-2" x="17.29" y="7.95" width="19.74" height="32.43" rx="2.92"/><path class="cls-2" d="M17.29,35.17H37a0,0,0,0,1,0,0v2.3a2.92,2.92,0,0,1-2.92,2.92H20.21a2.92,2.92,0,0,1-2.92-2.92v-2.3A0,0,0,0,1,17.29,35.17Z"/><ellipse class="cls-3" cx="27.16" cy="37.77" rx="1.26" ry="1.31"/><path class="cls-2" d="M20.21,8H34.11A2.92,2.92,0,0,1,37,10.87v.91a0,0,0,0,1,0,0H17.29a0,0,0,0,1,0,0v-.91A2.92,2.92,0,0,1,20.21,8Z"/><rect class="cls-4" x="25.68" y="9.54" width="2.96" height="0.65"/><ellipse class="cls-3" cx="23.27" cy="9.87" rx="0.73" ry="0.76"/><ellipse class="cls-3" cx="31.14" cy="9.87" rx="0.73" ry="0.76"/><rect class="cls-3" x="19.39" y="13.53" width="15.54" height="3.96"/><rect class="cls-4" x="19.39" y="18.86" width="6.51" height="6.75"/><rect class="cls-3" x="26.76" y="18.86" width="8.17" height="3.38"/><rect class="cls-3" x="26.76" y="23.23" width="8.17" height="2.38"/><ellipse class="cls-5" cx="31.14" cy="30.27" rx="2.17" ry="2.25"/><rect class="cls-3" x="19.18" y="27.14" width="8.17" height="6.25"/><path class="cls-6" d="M28.64,8H34a3.05,3.05,0,0,1,3,3.11V37.27a3.05,3.05,0,0,1-3,3.11H29.72"/><path class="cls-6" d="M28.64,8H34a3.05,3.05,0,0,1,3,3.11v.72H28.64"/><path class="cls-6" d="M28.42,35.17H37v2.1a3.05,3.05,0,0,1-3,3.11H28.42"/></g></g></svg>