<svg xmlns="http://www.w3.org/2000/svg" viewBox="0 0 54.32 47.6"><defs><style>.cls-1{fill:#f6afa0;}.cls-2{fill:#c38497;}</style></defs><title>Risorsa 14</title><g id="Livello_2" data-name="Livello 2"><g id="grafica"><path class="cls-1" d="M54.32,47.6H0V0H54.32ZM2,45.6H52.32V2H2Z"/><path class="cls-1" d="M30.14,9.19l-9.79,14,9.77,14.33H25.76L18,25.87,10.11,37.54H6l9.88-14.16L6.23,9.19h4.34L18.2,20.71,26,9.19Z"/><path class="cls-1" d="M47.31,37.54H44.19V35.6a11.26,11.26,0,0,1-2.81,1.81,7.75,7.75,0,0,1-3.17.65,6.27,6.27,0,0,1-5.27-2.56A11.43,11.43,0,0,1,31,28.41a12.18,12.18,0,0,1,.67-4.2,9.81,9.81,0,0,1,1.82-3.13,7.65,7.65,0,0,1,5.74-2.59,10.07,10.07,0,0,1,2.59.3,12.35,12.35,0,0,1,2.38,1v-8h3.12ZM44.19,33V22.34a11.29,11.29,0,0,0-2.26-.78,9.88,9.88,0,0,0-2.18-.22,4.93,4.93,0,0,0-4.08,1.83,8.13,8.13,0,0,0-1.46,5.18,9.21,9.21,0,0,0,1.13,5A4,4,0,0,0,39,35.09a6.81,6.81,0,0,0,2.69-.59A11.55,11.55,0,0,0,44.19,33Z"/><path class="cls-2" d="M30.14,9.19H26L18.2,20.71l-.92-1.39c.14,2.28.35,4.55.59,6.79l.16-.24,7.73,11.68h4.36L20.35,23.21Z"/><path class="cls-2" d="M44.19,11.71v8a12.35,12.35,0,0,0-2.38-1,8.16,8.16,0,0,0-1.3-.23v2.82a8.88,8.88,0,0,1,1.42.18,11.29,11.29,0,0,1,2.26.78V33a11.55,11.55,0,0,1-2.54,1.52,7.07,7.07,0,0,1-2,.55c.23.91.5,1.82.69,2.73a7.14,7.14,0,0,0,1.07-.37,11.26,11.26,0,0,0,2.81-1.81v1.95h3.12V11.71Z"/></g></g></svg>