<svg xmlns="http://www.w3.org/2000/svg" viewBox="0 0 177.6 215.1"><defs><style>.cls-1{fill:#e5989b;}.cls-2{fill:#ffb4a2;}</style></defs><title>Risorsa 3</title><g id="Livello_2" data-name="Livello 2"><g id="compra"><path class="cls-1" d="M128.21,42.24h-7C121.21,22.81,106.67,7,88.8,7S56.39,22.81,56.39,42.24h-7C49.39,19,67.07,0,88.8,0S128.21,19,128.21,42.24Z"/><rect class="cls-1" x="49.32" y="42.24" width="7.08" height="30.51"/><rect class="cls-2" x="121.16" y="42.24" width="7.11" height="29.29"/><path class="cls-1" d="M177.52,215.1c0-38.26-33.9-149.25-33.9-149.25H33.9S0,176.84,0,215.1"/><path class="cls-2" d="M143.7,65.85H85.87c21.86,45.41,25,99.6,13.28,149.25H177.6C177.6,176.84,143.7,65.85,143.7,65.85Z"/><path class="cls-2" d="M128.21,42.24h-7C121.21,22.81,106.67,7,88.8,7V0C110.53,0,128.21,19,128.21,42.24Z"/></g></g></svg>