<svg xmlns="http://www.w3.org/2000/svg" viewBox="0 0 198.34 212.17"><defs><style>.cls-1{fill:#e5989b;}.cls-2{fill:#ffb4a2;}.cls-3{fill:#fff;}</style></defs><title>Risorsa 5</title><g id="Livello_2" data-name="Livello 2"><g id="chatbot"><rect class="cls-1" x="96.3" y="17.7" width="10.65" height="36.06"/><rect class="cls-2" x="102.69" y="20.83" width="4.26" height="36.06"/><ellipse class="cls-1" cx="101.63" cy="120.35" rx="96.72" ry="77.82"/><circle class="cls-1" cx="101.63" cy="10.99" r="10.99"/><path class="cls-2" d="M198.34,120.35c0-33.56-26.41-62.17-63.43-73.08,22.56,41.64,23.38,91.2,19.7,138.18C180.94,171.54,198.34,147.59,198.34,120.35Z"/><path class="cls-3" d="M82.11,105.39h-3a16,16,0,0,0-31.9,0h-3a18.95,18.95,0,0,1,37.9,0Z"/><path class="cls-3" d="M159,105.39h-3a16,16,0,1,0-31.9,0h-3a18.95,18.95,0,1,1,37.9,0Z"/><path class="cls-3" d="M144.62,133.74C120,149.26,84.45,148.57,59.47,133c-4.36,3.91-6.87,8.47-6.87,13.34,0,14.43,21.95,26.13,49,26.13s49-11.7,49-26.13C150.65,141.75,148.46,137.47,144.62,133.74Z"/><path class="cls-2" d="M112.61,11A11,11,0,0,0,104.22.32c2.2,6.82,1.31,14.77-1.53,21.6A11,11,0,0,0,112.61,11Z"/><path class="cls-1" d="M.54,212c15.49,2,60.6-14.62,60.29-19.75a.41.41,0,0,0,.19-.66L28.85,154.47c-.19-.22-.65-.2-.68.09C25.83,181,2.45,217.7.05,211.43-.12,211.76.18,212,.54,212Z"/><path class="cls-2" d="M22.15,177.83C15.42,195.33,5,211.05,1.22,212.08c5.47.47,14.07-1.06,23.07-3.5A130.23,130.23,0,0,0,22.15,177.83Z"/></g></g></svg>