<svg xmlns="http://www.w3.org/2000/svg" viewBox="0 0 181.94 144.81"><defs><style>.cls-1{fill:#b88290;}.cls-2{fill:#ffb4a2;}</style></defs><title>Risorsa 7</title><g id="Livello_2" data-name="Livello 2"><g id="LOGO4"><path class="cls-1" d="M3.36,50.25A4.23,4.23,0,0,0,3,51.48a4.45,4.45,0,0,0,0,1.7,7.35,7.35,0,0,0,.81,2.1,11.63,11.63,0,0,0,1.88,2.47A25.15,25.15,0,0,0,9,60.54a42.49,42.49,0,0,0,5,3,39.09,39.09,0,0,0,5.09,2.29,21.29,21.29,0,0,0,4,1,10.77,10.77,0,0,0,3,.06,7,7,0,0,0,2.2-.67,5.37,5.37,0,0,0,1.5-1.13,6.4,6.4,0,0,0,.94-1.31,7.27,7.27,0,0,0,.57-1.5,8.4,8.4,0,0,0,.23-1.68,9.46,9.46,0,0,0-.11-1.75A8.48,8.48,0,0,0,31,57.18l1.22-.39a15.56,15.56,0,0,1,.64,2,10.47,10.47,0,0,1,.31,2.39,12.36,12.36,0,0,1-.27,2.7,11.18,11.18,0,0,1-1.1,2.92,12.13,12.13,0,0,1-3.17,3.89A10.28,10.28,0,0,1,24,72.75a15.2,15.2,0,0,1-6-.16,27.91,27.91,0,0,1-7.38-2.8,25.25,25.25,0,0,1-6.17-4.4,16.35,16.35,0,0,1-3.49-5A11.44,11.44,0,0,1,0,55.3a11.63,11.63,0,0,1,1.36-4.93,14.67,14.67,0,0,1,1.78-2.68,9,9,0,0,1,2-1.77,4.91,4.91,0,0,1,2.13-.72,3.89,3.89,0,0,1,3,1.15,3.39,3.39,0,0,1,.69,1,3,3,0,0,1,.27,1.19A2.63,2.63,0,0,1,11,49.8a1.55,1.55,0,0,1-.72.75,1.66,1.66,0,0,1-.89.13,4.4,4.4,0,0,1-1-.29c-.36-.16-.73-.32-1.1-.5a11.82,11.82,0,0,0-1.1-.48,3.27,3.27,0,0,0-1-.23,1.78,1.78,0,0,0-.94.2A1.92,1.92,0,0,0,3.36,50.25Z"/><path class="cls-1" d="M13.07,41a2.38,2.38,0,0,1-.65-.88A2.7,2.7,0,0,1,12.2,39a3.34,3.34,0,0,1,.22-1.19,3.52,3.52,0,0,1,.67-1.14,3.58,3.58,0,0,1,2.11-1.27,3.06,3.06,0,0,1,1.13,0A2.4,2.4,0,0,1,18,36.77a2.65,2.65,0,0,1,.21,1.09A3.53,3.53,0,0,1,18,39a3.93,3.93,0,0,1-.66,1.13,3.82,3.82,0,0,1-1,.86,3.92,3.92,0,0,1-1.13.43,2.59,2.59,0,0,1-1.11,0A2.42,2.42,0,0,1,13.07,41Zm22.27,9.7a2.23,2.23,0,0,1,.42.47,1.42,1.42,0,0,1,.26.77A2.58,2.58,0,0,1,35.83,53a5,5,0,0,1-.91,1.45,4.45,4.45,0,0,1-1.27,1.13,2.47,2.47,0,0,1-1,.32,1.54,1.54,0,0,1-.77-.15,3.8,3.8,0,0,1-.49-.32L19.62,45.6a1.83,1.83,0,0,0-.94-.43,1,1,0,0,0-.92.43,1.24,1.24,0,0,0-.28.53,2.67,2.67,0,0,0-.08.62h-.65a9.71,9.71,0,0,1,.09-1.27,7.7,7.7,0,0,1,.31-1.37,8.49,8.49,0,0,1,.57-1.39,6.67,6.67,0,0,1,.9-1.36A4.77,4.77,0,0,1,20.19,40a2.57,2.57,0,0,1,1.34-.28,2.45,2.45,0,0,1,1.1.38,8,8,0,0,1,.82.59Z"/><path class="cls-1" d="M33.52,32.29a15.9,15.9,0,0,1-.1-2.65,8.64,8.64,0,0,1,.1-1.1,7.67,7.67,0,0,1,.23-1.08,4.42,4.42,0,0,1,.41-1,2.91,2.91,0,0,1,.62-.76,2.13,2.13,0,0,1,1.63-.59,2.32,2.32,0,0,1,1.54.91,8.28,8.28,0,0,1,.76,1.06,9.65,9.65,0,0,1,.65,1.44l-.43.36a1.86,1.86,0,0,0-1.1-.41,1.84,1.84,0,0,0-1.24.53,3.58,3.58,0,0,0-.8,1,8.09,8.09,0,0,0-.53,1.2,9.62,9.62,0,0,0-.36,1.27c-.09.42-.16.81-.23,1.18L43,43.45a2.61,2.61,0,0,1,.33.52,1.35,1.35,0,0,1,.14.77,2.43,2.43,0,0,1-.36,1A4.79,4.79,0,0,1,42,47a4.61,4.61,0,0,1-1.45.91,2.71,2.71,0,0,1-1.1.16,1.43,1.43,0,0,1-.75-.27,2.61,2.61,0,0,1-.44-.38L28.34,35.78a1.81,1.81,0,0,0-.86-.58,1,1,0,0,0-1,.27,1.3,1.3,0,0,0-.37.47,3.59,3.59,0,0,0-.18.6l-.65-.1a10.69,10.69,0,0,1,.31-1.24,8.45,8.45,0,0,1,.53-1.3,9.32,9.32,0,0,1,.8-1.28,6.9,6.9,0,0,1,1.12-1.18,4.2,4.2,0,0,1,1.28-.79,2.88,2.88,0,0,1,1.15-.2,2.75,2.75,0,0,1,1,.22,4.8,4.8,0,0,1,.86.49,5.64,5.64,0,0,1,.67.59C33.23,32,33.39,32.14,33.52,32.29Z"/><path class="cls-1" d="M54.78,21.8a2.52,2.52,0,0,1-1,.33,1.66,1.66,0,0,1-.84-.12,1.88,1.88,0,0,1-.67-.43,2.58,2.58,0,0,1-.49-.65,7.07,7.07,0,0,1-.43-.94,3.52,3.52,0,0,0-.41-.8,1,1,0,0,0-.57-.41,1.45,1.45,0,0,0-.93.24,3.13,3.13,0,0,0-1.13,1.06,4.11,4.11,0,0,0-.67,1.78,7,7,0,0,0,.1,2.43,10.41,10.41,0,0,0,1.15,3A17.18,17.18,0,0,0,51,30.48a8.9,8.9,0,0,0,2.43,2,5.7,5.7,0,0,0,2.62.72,5.45,5.45,0,0,0,2.73-.72,5.77,5.77,0,0,0,1.11-.78,5.91,5.91,0,0,0,.85-1,7.37,7.37,0,0,0,.65-1.08c.18-.37.35-.76.51-1.16l.67.18a14.71,14.71,0,0,1-.41,1.75,10.26,10.26,0,0,1-.9,2.05,9.89,9.89,0,0,1-1.61,2.08,10.52,10.52,0,0,1-2.55,1.87,9.32,9.32,0,0,1-3.33,1,9,9,0,0,1-3.53-.29A9.67,9.67,0,0,1,47,35.46a10.37,10.37,0,0,1-2.64-3.27,11.26,11.26,0,0,1-1.17-3.14A10.73,10.73,0,0,1,43,26a10.3,10.3,0,0,1,.61-2.78,12,12,0,0,1,1.22-2.43,11.44,11.44,0,0,1,1.67-2,9.21,9.21,0,0,1,1.92-1.4,9.32,9.32,0,0,1,2.45-.94,6.05,6.05,0,0,1,2-.09,3.62,3.62,0,0,1,1.58.6,3.29,3.29,0,0,1,1,1.14,3.88,3.88,0,0,1,.39,1,2.73,2.73,0,0,1,0,1,2.27,2.27,0,0,1-.35.89A2.37,2.37,0,0,1,54.78,21.8Z"/><path class="cls-1" d="M70.94,28.75a3,3,0,0,1,.1.61,1.46,1.46,0,0,1-.2.78,2.81,2.81,0,0,1-.76.81,5,5,0,0,1-1.55.74,4.64,4.64,0,0,1-1.68.28,2.34,2.34,0,0,1-1-.28,1.48,1.48,0,0,1-.56-.55,2.75,2.75,0,0,1-.24-.52L57.18,6.28a1.9,1.9,0,0,0-.57-.87,1,1,0,0,0-1-.12,1.53,1.53,0,0,0-.54.28,2.55,2.55,0,0,0-.41.48l-.53-.33a12.2,12.2,0,0,1,.76-1,7.68,7.68,0,0,1,1-1,10.9,10.9,0,0,1,1.24-.88,7.38,7.38,0,0,1,1.48-.66,4.88,4.88,0,0,1,2-.3,2.67,2.67,0,0,1,1.28.49,2.3,2.3,0,0,1,.73.89,7.77,7.77,0,0,1,.37.93Z"/><path class="cls-1" d="M79,19.59a5.37,5.37,0,0,0,.36,1.34,8.07,8.07,0,0,0,1.81,2.73,6.78,6.78,0,0,0,1.37,1.06,6.17,6.17,0,0,0,1.64.65,5.38,5.38,0,0,0,1.89.09,5.58,5.58,0,0,0,1.28-.32,5.22,5.22,0,0,0,1.07-.58,7.27,7.27,0,0,0,.92-.76q.43-.42.87-.9l.56.41a14.33,14.33,0,0,1-1,1.49,9.74,9.74,0,0,1-1.57,1.58A10,10,0,0,1,86,27.74a10.21,10.21,0,0,1-3.06.81,9.67,9.67,0,0,1-3.47-.19,8.57,8.57,0,0,1-3.17-1.5A9.18,9.18,0,0,1,73.8,24a11.5,11.5,0,0,1-1.31-4.23,11.23,11.23,0,0,1,.06-3.34,10.58,10.58,0,0,1,.91-2.85,10.06,10.06,0,0,1,1.59-2.34,11.37,11.37,0,0,1,4.29-3,9.74,9.74,0,0,1,2.3-.59,9.26,9.26,0,0,1,2.63,0,5.75,5.75,0,0,1,1.94.62A3.52,3.52,0,0,1,87.46,9.4,3.09,3.09,0,0,1,88,10.82a2.74,2.74,0,0,1-.33,1.73A5.17,5.17,0,0,1,86.38,14Zm3.53-4.5a2.94,2.94,0,0,0,.4-.36,1.11,1.11,0,0,0,.22-.38,2,2,0,0,0,.09-.53,5.58,5.58,0,0,0,0-.77A6.36,6.36,0,0,0,83,12a4.12,4.12,0,0,0-.51-1.08,3,3,0,0,0-.77-.8,1.43,1.43,0,0,0-1-.24,1.9,1.9,0,0,0-1.18.58,3.24,3.24,0,0,0-.71,1.2,6.69,6.69,0,0,0-.33,1.58A17.4,17.4,0,0,0,78.39,15q0,.88.09,1.68T78.63,18Z"/><path class="cls-1" d="M120.86,26.57l1.79-2c.63-.72,1.27-1.47,1.91-2.24s1.27-1.58,1.9-2.38,1.23-1.62,1.79-2.42l.49-6.58a1.5,1.5,0,0,1,.44-1,2,2,0,0,1,1-.49,3.76,3.76,0,0,1,1.3,0,7,7,0,0,1,1.42.39,11.21,11.21,0,0,1,1.08.5,3.75,3.75,0,0,1,.77.57,1.79,1.79,0,0,1,.42.71,2.53,2.53,0,0,1,.09.94l-1.32,19.17c.59-.65,1.21-1.36,1.88-2.12s1.33-1.55,2-2.36,1.33-1.65,2-2.5,1.27-1.69,1.84-2.54,1.08-1.65,1.53-2.45a18.21,18.21,0,0,0,1.09-2.24,10.8,10.8,0,0,0,.63-2.1,9,9,0,0,0,.15-1.5q0-.63,0-1a1.57,1.57,0,0,1,.08-.71,1.14,1.14,0,0,1,.47-.58,1.93,1.93,0,0,1,.7-.24,2.39,2.39,0,0,1,.8,0,3.29,3.29,0,0,1,.75.2,3.65,3.65,0,0,1,1.19.72,1.44,1.44,0,0,1,.44,1,4.86,4.86,0,0,1-.08.64,5.62,5.62,0,0,1-.15.62c-.06.2-.12.38-.18.55s-.12.3-.16.39a12,12,0,0,1-1.09,2q-.78,1.25-1.89,2.76c-.74,1-1.55,2.09-2.43,3.23s-1.79,2.29-2.72,3.43-1.84,2.27-2.75,3.36-1.75,2.1-2.54,3l-2.09,2.42c-.59.7-1,1.21-1.35,1.54a1.92,1.92,0,0,1-.68.54,1.78,1.78,0,0,1-.74.17,2.72,2.72,0,0,1-.79-.1c-.26-.08-.53-.17-.81-.28a4.47,4.47,0,0,1-1.17-.64,2.24,2.24,0,0,1-.62-.67,1.55,1.55,0,0,1-.23-.64c0-.21,0-.39,0-.54l1-13.54q-1.41,1.77-2.82,3.46c-.94,1.13-1.81,2.17-2.63,3.11s-1.53,1.76-2.15,2.46-1.09,1.21-1.41,1.53a2.07,2.07,0,0,1-.73.51,1.89,1.89,0,0,1-.76.16,2.33,2.33,0,0,1-.78-.1,6,6,0,0,1-.78-.27,4.28,4.28,0,0,1-1.18-.63,2.47,2.47,0,0,1-.61-.67,1.81,1.81,0,0,1-.24-.64,3.77,3.77,0,0,1,0-.55l2-24.58a7.28,7.28,0,0,0,0-1.22,2.6,2.6,0,0,0-.25-.92,2,2,0,0,0-.59-.7,4.45,4.45,0,0,0-1-.56,4,4,0,0,0-1.32-.23,5.09,5.09,0,0,0-1.62.21,4.63,4.63,0,0,0-1.54.8,3.47,3.47,0,0,0-1.1,1.52,2.3,2.3,0,0,0-.21,1,1.54,1.54,0,0,0,.16.67,1.07,1.07,0,0,0,.33.39,2.16,2.16,0,0,0,.3.17,1.9,1.9,0,0,0,.83.15,5.77,5.77,0,0,0,.67-.12l.6-.15a.84.84,0,0,1,.56,0,1.39,1.39,0,0,1,.44.29,1.47,1.47,0,0,1,.34.51,1.92,1.92,0,0,1,.14.72,2.52,2.52,0,0,1-.2.94,2.74,2.74,0,0,1-.79,1.15,2.94,2.94,0,0,1-1.11.6,3.3,3.3,0,0,1-1.26.12,4.3,4.3,0,0,1-1.25-.29,4.18,4.18,0,0,1-1.48-.94,3.78,3.78,0,0,1-.85-1.32,3.9,3.9,0,0,1-.24-1.53A4.7,4.7,0,0,1,105.67,5a7.7,7.7,0,0,1,2.07-3A7.86,7.86,0,0,1,110.68.35,9.33,9.33,0,0,1,114.07,0a12.22,12.22,0,0,1,3.44.81,8,8,0,0,1,2.86,1.78,6,6,0,0,1,1.37,2.21,7.53,7.53,0,0,1,.4,2.45c0,.85,0,1.67-.09,2.47Z"/><path class="cls-1" d="M146.43,40a5.74,5.74,0,0,0-.81,1.14,8.89,8.89,0,0,0-.62,1.47,8.13,8.13,0,0,0-.32,1.66,6.68,6.68,0,0,0,.06,1.73,5.84,5.84,0,0,0,.54,1.69,5.33,5.33,0,0,0,1.14,1.5,5.39,5.39,0,0,0,1.07.78,5.09,5.09,0,0,0,1.12.46,6.64,6.64,0,0,0,1.18.22c.4,0,.82.08,1.24.1l.05.69a14.15,14.15,0,0,1-1.8.17A10.12,10.12,0,0,1,142,48.66a9.4,9.4,0,0,1-2.07-2.8,8.43,8.43,0,0,1-.88-3.39,9.19,9.19,0,0,1,.62-3.69,11.19,11.19,0,0,1,2.42-3.71,11.32,11.32,0,0,1,2.6-2.09,10.88,10.88,0,0,1,2.78-1.12,10.35,10.35,0,0,1,2.81-.27A11.12,11.12,0,0,1,153,32a11.23,11.23,0,0,1,2.37,1,10.14,10.14,0,0,1,3.61,3.41,5.85,5.85,0,0,1,.76,1.89,3.51,3.51,0,0,1,0,1.65,3.2,3.2,0,0,1-.75,1.33,2.74,2.74,0,0,1-1.54.84,4.78,4.78,0,0,1-2,0Zm5.71-.15a3,3,0,0,0,.53.08,1.11,1.11,0,0,0,.44-.08,1.65,1.65,0,0,0,.47-.27,6,6,0,0,0,.56-.52,6.11,6.11,0,0,0,.67-.88,4,4,0,0,0,.5-1.09,2.82,2.82,0,0,0,.13-1.1A1.43,1.43,0,0,0,155,35a1.94,1.94,0,0,0-1.2-.54,3.34,3.34,0,0,0-1.37.22,7.18,7.18,0,0,0-1.44.76,16.18,16.18,0,0,0-1.4,1.07,15.13,15.13,0,0,0-1.23,1.13c-.38.38-.7.71-1,1Z"/><path class="cls-1" d="M168,49.9a4.51,4.51,0,0,0-.82-1,4.75,4.75,0,0,0-.88-.64,2.29,2.29,0,0,0-.8-.27.8.8,0,0,0-.59.09.44.44,0,0,0-.19.49c0,.22.08.47.13.75a2.39,2.39,0,0,1,0,.84,1.24,1.24,0,0,1-.62.77,1.7,1.7,0,0,1-.74.27,2,2,0,0,1-.76-.06,2.16,2.16,0,0,1-.73-.36,2.29,2.29,0,0,1-.56-.6,2.35,2.35,0,0,1-.35-1.95,2.82,2.82,0,0,1,1.3-1.67,3.42,3.42,0,0,1,2.1-.57,4.9,4.9,0,0,1,2.1.66,8.38,8.38,0,0,1,2,1.54,13,13,0,0,1,1.64,2.07A13.65,13.65,0,0,1,171.48,53,7.83,7.83,0,0,1,172,55.7a5.72,5.72,0,0,1-.62,2.48,5.3,5.3,0,0,1-2,2l-9.43,6-.33.23a1.27,1.27,0,0,0-.27.3.61.61,0,0,0-.12.37.75.75,0,0,0,.15.45A1,1,0,0,0,160,68a4.34,4.34,0,0,0,.76.17l-.08.65c-.34,0-.73-.06-1.16-.12a6,6,0,0,1-1.34-.36,5.74,5.74,0,0,1-1.38-.8,5.31,5.31,0,0,1-1.25-1.39,3.72,3.72,0,0,1-.59-2.31,3.56,3.56,0,0,1,1.23-2.32,9,9,0,0,1-1.93-.36,7.59,7.59,0,0,1-1.55-.7,6.54,6.54,0,0,1-1.23-1,7.47,7.47,0,0,1-.93-1.17,5.62,5.62,0,0,1-.76-1.74,4.26,4.26,0,0,1-.09-1.88,4.59,4.59,0,0,1,.79-1.87,6.34,6.34,0,0,1,1.88-1.72,5.42,5.42,0,0,1,2.88-1,6.36,6.36,0,0,1,2.66.56,12.79,12.79,0,0,1,2.58,1.55c.85.64,1.73,1.3,2.65,2a3.24,3.24,0,0,0,2.06.71A3.65,3.65,0,0,0,167,54.4a3,3,0,0,0,.95-4.5Zm-5.57,7.39a.92.92,0,0,0,.46-.68,1.3,1.3,0,0,0-.23-.84,3.06,3.06,0,0,0-1-1,3.3,3.3,0,0,0-1.38-.44,4.64,4.64,0,0,0-1.7.17,6.89,6.89,0,0,0-1.91.89,8.28,8.28,0,0,0-1.51,1.17,3.79,3.79,0,0,0-.76,1,1.68,1.68,0,0,0-.16.9,2,2,0,0,0,.29.78,1.87,1.87,0,0,0,.76.69,2.7,2.7,0,0,0,1,.31,3.27,3.27,0,0,0,1.08,0,2.77,2.77,0,0,0,1-.38Z"/><path class="cls-1" d="M176.1,72a16.69,16.69,0,0,1,2.5.86c.33.14.66.3,1,.48a6.67,6.67,0,0,1,.92.61,4.82,4.82,0,0,1,.77.72,2.85,2.85,0,0,1,.49.86,2.15,2.15,0,0,1,0,1.73,2.34,2.34,0,0,1-1.4,1.11,7.67,7.67,0,0,1-1.27.33,9.75,9.75,0,0,1-1.57.1l-.19-.54a1.83,1.83,0,0,0,.78-.87,2,2,0,0,0,0-1.36,3.48,3.48,0,0,0-.63-1.08,8.17,8.17,0,0,0-.93-.93,9.5,9.5,0,0,0-1.05-.78c-.37-.24-.71-.45-1-.64l-12.12,4.29a2.81,2.81,0,0,1-.61.13,1.38,1.38,0,0,1-.77-.15,2.73,2.73,0,0,1-.82-.69,5.18,5.18,0,0,1-.78-1.52A4.78,4.78,0,0,1,159,73a2.62,2.62,0,0,1,.24-1.08,1.48,1.48,0,0,1,.52-.62,2.91,2.91,0,0,1,.52-.27l14.42-5.1a1.77,1.77,0,0,0,.85-.59,1,1,0,0,0,.1-1,1.27,1.27,0,0,0-.31-.51,3,3,0,0,0-.49-.39l.32-.56a11.83,11.83,0,0,1,1,.73,7.65,7.65,0,0,1,1,1,9.44,9.44,0,0,1,.91,1.2,7.41,7.41,0,0,1,.71,1.47,4.26,4.26,0,0,1,.28,1.48,3.14,3.14,0,0,1-.22,1.15,3,3,0,0,1-.57.85,4.39,4.39,0,0,1-.76.62,4.84,4.84,0,0,1-.8.43Z"/><path class="cls-2" d="M42.2,123.86c-1.75-.24-3.5-.46-5.27-.6l-1.33-.12a9.15,9.15,0,0,1-1.34-.36,6.72,6.72,0,0,1-2.38-1.57,7.59,7.59,0,0,1-1.52-2.58,7.85,7.85,0,0,1-.31-3.11,7.68,7.68,0,0,1,1.13-3.15A8.16,8.16,0,0,1,33.73,110l.65-.4.58-.34,1.15-.67,2.32-1.32c1.55-.88,3.12-1.71,4.7-2.52a44.56,44.56,0,0,1,4.91-2l4.91-2L92.27,85.05l.65,6.69-1.19-.22,3-6,31.37,29.2L134,122l3.92,3.65,2,1.82,1,.92.26.25.36.38c.23.25.47.51.69.78a9.22,9.22,0,0,1,1.54,8.14,10,10,0,0,1-2,3.7,9.82,9.82,0,0,1-3.5,2.51,9.35,9.35,0,0,1-4.22.6,3.21,3.21,0,0,1-.57-.05l-.46-.07-.62-.12L131,144.3a27.78,27.78,0,0,1-2.93-.69c-.93-.26-1.85-.56-2.56-.73-.39-.09-.75-.2-1.17-.29l-1.28-.29-2.57-.56-5.21-1.07-10.48-2.06-21-4C69.49,133.51,56.4,125.65,42.2,123.86Zm0,0c3.54.48,7.08.92,10.67,1.13s7.21.25,10.83.33,7.22.23,10.8.54a49.92,49.92,0,0,1,5.28,1l5.27,1,21.09,4,10.54,2.07,5.29,1.08,2.66.59,1.34.29,1.43.37c1,.25,1.79.51,2.59.74a21.4,21.4,0,0,0,2.28.53l1.31.23.7.13c.1,0,.29.06.2,0h.09a2.61,2.61,0,0,0,1-.13,2.8,2.8,0,0,0,.81-.59,3.2,3.2,0,0,0,.53-1A2.79,2.79,0,0,0,137,135a2.7,2.7,0,0,0-.41-.94l-.21-.21-.09-.12-.22-.21-1-.91-2-1.83-3.93-3.65-7.84-7.3L90,90.64a3.5,3.5,0,0,1,3-6l1.19.22A3.5,3.5,0,0,1,97,88.94a3.55,3.55,0,0,1-2.14,2.61L55.55,107.28l-4.91,2a43.29,43.29,0,0,1-4.91,2c-1.7.5-3.41,1-5.14,1.42l-2.59.64-1.3.31-1.21.28a4.23,4.23,0,0,0-1.66.72,4.62,4.62,0,0,0-1.22,1.55,5.24,5.24,0,0,0-.41,2.14,5,5,0,0,0,.63,2.22A5.42,5.42,0,0,0,37,123C38.71,123.32,40.45,123.59,42.2,123.86Z"/><path class="cls-2" d="M95.05,92.84l-5.87-1.23,1.93-9.21h0c.36-2.19,1.86-6.41,4.3-7.53l2.18-1c5.78-2.58,11.23-5,13.85-10.75a12.52,12.52,0,0,0-3-14.21,16.54,16.54,0,0,0-15.93-3,17.7,17.7,0,0,0-6.9,4.37l-4.27-4.22a23.77,23.77,0,0,1,9.25-5.84c7.47-2.51,16.25-.83,21.85,4.19A18.42,18.42,0,0,1,117,65.64c-3.56,7.81-10.63,11-16.87,13.74l-1.79.8A15,15,0,0,0,97,83.67Z"/><path class="cls-2" d="M84.38,47.46c-.84-4-4.85-8.27-8.1-10.53a37.6,37.6,0,0,1,2.1,19.68c5.49-3.84,12.29-5.26,18.88-5.93C93.53,48.64,88.66,46.69,84.38,47.46Z"/><path class="cls-1" d="M80.07,63a11.88,11.88,0,0,0,4.58,5.49,8.24,8.24,0,0,0,6.56.72,6.7,6.7,0,0,0,4.37-4.27,8.22,8.22,0,0,0,.33-1.47c0-.25.06-.5.12-.75a6.82,6.82,0,0,0,0-.8c0-1.15-.08-2.36-.19-3.58h0a1.15,1.15,0,0,1,2.24-.48A19.54,19.54,0,0,1,99,61.67a9.08,9.08,0,0,1,.07,1.09c0,.37-.07.74-.11,1.11A7.81,7.81,0,0,1,98.4,66a5.87,5.87,0,0,1-.55,1,5.94,5.94,0,0,1-.64.91,10,10,0,0,1-1.6,1.52,9.73,9.73,0,0,1-11.71.11,12.24,12.24,0,0,1-4.12-6.5.16.16,0,0,1,.11-.19A.16.16,0,0,1,80.07,63Z"/><path class="cls-1" d="M97.07,58.61c-1,1.81-3.64,3.27-5.57,3.87a19.27,19.27,0,0,0,4.08-9.25c2.07,2.72,5.16,4.46,8.27,5.81C101.71,59.46,99,59.65,97.07,58.61Z"/></g></g></svg>