<svg xmlns="http://www.w3.org/2000/svg" viewBox="0 0 214.34 160.41"><defs><style>.cls-1{fill:#e5989b;}.cls-2{fill:#ffb4a2;}</style></defs><title>Risorsa 4</title><g id="Livello_2" data-name="Livello 2"><g id="spedizione2"><rect class="cls-1" width="136.9" height="127.82" rx="9.5"/><path class="cls-1" d="M190.65,42a9.29,9.29,0,0,0-7.56-4.13h-48c-7.27,0-13.16,6.69-13.16,14.95v58.46c0,8.26,5.89,14.95,13.16,14.95h66.08c7.27,0,13.17-6.69,13.17-14.95V83.76a25.27,25.27,0,0,0-4.48-14.51Z"/><path class="cls-2" d="M209.93,69.26,190.72,42a9.29,9.29,0,0,0-7.56-4.12h-11V76.49c0,3.06,2.19,5.53,4.88,5.52l37.27-.11A25.05,25.05,0,0,0,209.93,69.26Z"/><circle class="cls-1" cx="37.38" cy="137.9" r="22.52"/><circle class="cls-1" cx="161.75" cy="137.9" r="22.52"/><path class="cls-2" d="M184.27,137.9A22.51,22.51,0,0,0,165,115.64c5.31,14.12,5.41,29.93,1.14,44.34A22.52,22.52,0,0,0,184.27,137.9Z"/><path class="cls-2" d="M59.9,137.9a22.51,22.51,0,0,0-19.27-22.26c5.31,14.12,5.4,29.93,1.14,44.34A22.52,22.52,0,0,0,59.9,137.9Z"/><path class="cls-2" d="M122.71,0H85.58c15,39.41,23.47,87.34,15.31,127.82h21.82c7.84,0,14.19-7.79,14.19-17.4v-93C136.9,7.79,130.55,0,122.71,0Z"/></g></g></svg>