<svg xmlns="http://www.w3.org/2000/svg" viewBox="0 0 210.49 214.79"><defs><style>.cls-1{fill:#e5989b;}.cls-2{fill:#ffb4a2;}</style></defs><title>Risorsa 2</title><g id="Livello_2" data-name="Livello 2"><g id="wishlist"><path class="cls-1" d="M210.3,48.72A50.13,50.13,0,0,1,208.24,68c-.37,1.23-.8,2.44-1.28,3.63L200.39,83.4l-.38.54L107.29,214a1.78,1.78,0,0,1-.52.5,2,2,0,0,1-2.16,0,1.84,1.84,0,0,1-.53-.5S34.42,117.27,11.3,85l-.06-.08L8.67,81.32A11.83,11.83,0,0,1,7.83,80l-4.1-7.83C3.29,71.07,2.9,70,2.53,68.9A50.2,50.2,0,0,1,0,53.15C0,23.8,25.45,0,56.85,0c20.45,0,38.37,10.1,48.4,25.24C116,9.07,135.67-1.35,157.85.14,185.57,2,208.06,22.82,210.3,48.72Z"/><path class="cls-2" d="M210.3,48.72C208.06,22.82,185.57,2,157.85.14,135.81-1.34,116.2,9,105.46,25l-.67,189.62a2.94,2.94,0,0,0,.9.22,2.44,2.44,0,0,0,1.08-.31,1.78,1.78,0,0,0,.52-.5L200,83.94l.38-.54L207,71.65c.48-1.19.91-2.4,1.28-3.63A50.13,50.13,0,0,0,210.3,48.72Z"/></g></g></svg>