<svg xmlns="http://www.w3.org/2000/svg" viewBox="0 0 180.27 216.24"><defs><style>.cls-1{fill:#e5989b;}.cls-2{fill:#ffb4a2;}</style></defs><title>Risorsa 1</title><g id="Livello_2" data-name="Livello 2"><g id="User"><path class="cls-1" d="M137.55,47.41a47.14,47.14,0,0,1-10.27,29.45c-9.29-6-22.5-9.69-37.14-9.69S62.27,70.9,53,76.87a47.41,47.41,0,1,1,84.57-29.46Z"/><path class="cls-1" d="M122,96c-19.76,8.26-46.48,10.48-64.14.14A78.24,78.24,0,0,0,0,171.6v31.5a13.14,13.14,0,0,0,13.14,13.14h154a13.14,13.14,0,0,0,13.14-13.14V171.6A78.26,78.26,0,0,0,122,96Z"/><path class="cls-2" d="M122,96a92.94,92.94,0,0,1-20.34,5.82,200.12,200.12,0,0,1,18.55,114.47h47a13.14,13.14,0,0,0,13.14-13.14V171.6A78.26,78.26,0,0,0,122,96Z"/><path class="cls-2" d="M137.55,47.38A47.4,47.4,0,0,0,92.42,0c12.15,21.13,13.38,47.25-.18,67.14,13.8.34,26.2,4,35,9.66A47.15,47.15,0,0,0,137.55,47.38Z"/></g></g></svg>