<svg id="Capa_1" enable-background="new 0 0 512 512" height="512" viewBox="0 0 512 512" width="512" xmlns="http://www.w3.org/2000/svg"><g><path d="m437.075 426.206v75.492c0 5.69-4.612 10.302-10.302 10.302h-341.546c-5.69 0-10.302-4.612-10.302-10.302v-75.492c0-50.417 32.976-94.89 81.209-109.539l26.63-8.087h146.471l26.63 8.087c48.234 14.65 81.21 59.122 81.21 109.539z" fill="#b78e8e"/><path d="m255.999 362.745c-4.268 0-7.726 3.459-7.726 7.726v141.529h15.453v-141.528c-.001-4.268-3.459-7.727-7.727-7.727z" fill="#aa8080"/><path d="m373.504 323.671c.246 4.088.386 8.205.386 12.355 0 75.348-41.144 141.082-102.188 175.974h155.069c5.69 0 10.302-4.612 10.302-10.302v-75.496c-.001-43.991-25.117-83.458-63.569-102.531z" fill="#aa8080"/><path d="m255.999 370.472 27.712 22.112c12.399 9.893 30.864 2.836 33.504-12.805l12.017-71.197-32.648-9.915z" fill="#f9efda"/><path d="m255.999 370.472-27.712 22.112c-12.399 9.893-30.864 2.836-33.504-12.805l-12.017-71.197 32.648-9.915z" fill="#f9efda"/><path d="m296.585 298.667v-41.626h-81.171v41.626l40.585 71.805z" fill="#ffddce"/><path d="m215.414 282.542c12.645 4.712 26.319 7.294 40.585 7.294 14.267 0 27.94-2.582 40.585-7.294v-25.501h-81.171v25.501z" fill="#ffcbbe"/><path d="m255.999 0c-51.726 0-93.659 41.932-93.659 93.659v79.625c0 51.726 41.932 93.659 93.659 93.659s93.659-41.932 93.659-93.659v-79.625c0-51.727-41.933-93.659-93.659-93.659z" fill="#ffddce"/><path d="m311.334 18.094c11.115 15.399 17.669 34.309 17.669 54.751v121.251c0 20.443-6.554 39.352-17.669 54.751 23.235-17.044 38.324-44.54 38.324-75.564v-79.624c0-31.025-15.089-58.521-38.324-75.565z" fill="#ffcbbe"/><path d="m368.31 457.885v54.115h-15.453v-54.115c0-4.265 3.462-7.726 7.726-7.726 4.266-.001 7.727 3.461 7.727 7.726z" fill="#9d6b6b"/><path d="m159.142 457.885v54.115h-15.452v-54.115c0-4.265 3.451-7.726 7.726-7.726 4.265-.001 7.726 3.461 7.726 7.726z" fill="#9d6b6b"/><path d="m227.112 223.703c-2.533 0-4.434-2.26-4.074-4.767 2.313-16.133 16.189-28.534 32.962-28.534s30.649 12.4 32.962 28.534c.359 2.507-1.541 4.767-4.074 4.767z" fill="#e7ecf6"/><path d="m320.52 116.553 7.023 47.403c.748 5.051 5.084 8.792 10.191 8.792h11.925v-35.887h19.772v-44.243c0-2.364-.073-4.711-.216-7.039-.677-10.993-9.77-19.572-20.784-19.572h-7.506c-11.269 0-20.404 9.135-20.404 20.404v30.142z" fill="#e7ecf6"/><path d="m369.214 85.578c-.677-10.993-9.77-19.572-20.784-19.572h-7.506c-2.131 0-4.184.329-6.115.935 8.075 2.499 14.088 9.78 14.633 18.637.143 2.328.216 4.675.216 7.039v44.243h19.772v-44.242c0-2.364-.073-4.712-.216-7.04z" fill="#d8e2f1"/><path d="m366.308 172.748h-16.65v-45.893c0-5.69 4.612-10.302 10.302-10.302h6.349c11.495 0 20.813 9.318 20.813 20.813v14.569c-.001 11.495-9.319 20.813-20.814 20.813z" fill="#ffddce"/><path d="m192.224 116.553-7.023 47.403c-.748 5.051-5.084 8.792-10.191 8.792h-11.925v-35.887h-19.772v-44.243c0-2.364.073-4.711.216-7.039.677-10.993 9.77-19.572 20.784-19.572h7.506c11.269 0 20.404 9.135 20.404 20.404v30.142z" fill="#e7ecf6"/><g><path d="m327.507 465.386h-40.883c-4.143 0-7.5-3.357-7.5-7.5s3.357-7.5 7.5-7.5h40.883c4.143 0 7.5 3.357 7.5 7.5s-3.358 7.5-7.5 7.5z" fill="#f9efda"/></g><path d="m145.69 172.748h16.65v-45.893c0-5.69-4.612-10.302-10.302-10.302h-6.349c-11.495 0-20.813 9.318-20.813 20.813v14.569c.001 11.495 9.32 20.813 20.814 20.813z" fill="#ffddce"/></g></svg>