<svg xmlns="http://www.w3.org/2000/svg" viewBox="0 0 738.64 568.88"><defs><style>.cls-1{fill:#407f32;}.cls-14,.cls-2,.cls-7{fill:none;}.cls-3{fill:#7aba45;}.cls-4{fill:#1c4922;}.cls-5{fill:#2b2b2b;stroke:#010202;}.cls-14,.cls-19,.cls-5,.cls-7{stroke-miterlimit:10;}.cls-6{fill:#3f7e31;}.cls-7{stroke:#174f25;stroke-width:11px;}.cls-8{fill:#bfc1bf;}.cls-10,.cls-12,.cls-13,.cls-15,.cls-16,.cls-9{isolation:isolate;}.cls-10,.cls-12,.cls-9{font-size:15px;}.cls-9{fill:#fff;}.cls-10,.cls-12,.cls-13,.cls-16,.cls-9{font-family:ArialMT, Arial;}.cls-10{fill:#188a37;}.cls-11{letter-spacing:-0.06em;}.cls-12{fill:#e5231e;}.cls-13{font-size:14px;fill:#6ab42d;}.cls-14{stroke:#6eb63a;stroke-width:2px;}.cls-16{font-size:16px;fill:#e52421;}.cls-17{fill:#1b331d;}.cls-18{fill:#191919;}.cls-19{fill:#0f1811;stroke:#b4b5b4;stroke-width:3px;}</style></defs><title>Risorsa 1</title><g id="Livello_2" data-name="Livello 2"><g id="Livello_1-2" data-name="Livello 1"><polyline class="cls-1" points="44.73 1 0 71.64 738.64 71.64 693.9 1"/><line class="cls-2" x1="277.52" x2="738.05"/><rect class="cls-3" y="71.44" width="738.64" height="497.44"/><rect class="cls-4" x="81.77" y="5.54" width="389.15" height="61.56"/><path class="cls-5" d="M536.29,215.24H71.07A11.87,11.87,0,0,1,59.2,203.37V116.64a11.87,11.87,0,0,1,11.87-11.87H536.28a11.87,11.87,0,0,1,11.87,11.87v86.73A11.86,11.86,0,0,1,536.29,215.24Z"/><rect class="cls-6" x="0.92" y="337.42" width="737.72" height="230.28"/><line class="cls-7" x1="0.92" y1="337.42" x2="738.64" y2="337.42"/><path class="cls-8" d="M130.59,188.49h-27.5l-7.3-48.22h42.1ZM105.26,186h23.23L135,142.78H98.72Z"/><rect class="cls-8" x="92.6" y="140.27" width="48.47" height="2.52"/><path class="cls-8" d="M127.4,142.79H106.27l4.36-8.47H123Zm-17-2.52h12.91l-1.76-3.44h-9.39Z"/><text class="cls-9" transform="translate(104.1 164.75)">40%</text><text class="cls-10" transform="translate(93.91 205.92)">Plastica</text><path class="cls-8" d="M204.53,188.49H177l-7.3-48.22h42.1ZM179.2,186h23.23L209,142.78H172.66Z"/><rect class="cls-8" x="166.54" y="140.27" width="48.47" height="2.52"/><path class="cls-8" d="M201.34,142.79H180.21l4.36-8.47H197Zm-17-2.52h12.91l-1.76-3.44h-9.39Z"/><text class="cls-9" transform="translate(177.1 164.75)">22%</text><text class="cls-10" transform="translate(171.91 205.92)"><tspan class="cls-11">V</tspan><tspan x="9.18" y="0">etro</tspan></text><path class="cls-8" d="M285.29,188.49h-27.5l-7.3-48.22h42.1ZM260,186H283.2l6.54-43.19H253.43Z"/><rect class="cls-8" x="247.31" y="140.27" width="48.47" height="2.52"/><path class="cls-8" d="M282.11,142.79H261l4.36-8.47h12.41Zm-17-2.52H278l-1.76-3.44h-9.39Z"/><text class="cls-12" transform="translate(258.1 164.75)">90%</text><text class="cls-10" transform="translate(252.91 205.92)">Umido</text><text class="cls-13" transform="translate(151.87 124.24)">LIVELLO DI PIENEZZ<tspan class="cls-11" x="137.71" y="0">A</tspan></text><line class="cls-14" x1="342.96" y1="121.88" x2="342.96" y2="197.72"/><g class="cls-15"><text class="cls-16" transform="translate(363.16 147.72)">Umido è pieno.</text><text class="cls-16" transform="translate(363.16 166.92)">Apri lo sportello inferiore</text><text class="cls-16" transform="translate(363.16 186.12)">e svuota il cestino.</text></g><rect class="cls-17" x="81.77" y="58.76" width="389.15" height="8.34"/><rect class="cls-18" x="244.55" y="59.6" width="30.18" height="6.41"/><path class="cls-19" d="M38.4,143.28H30.11a5.21,5.21,0,0,1-5.21-5.21V113.7a5.21,5.21,0,0,1,5.21-5.21H38.4a5.21,5.21,0,0,1,5.21,5.21v24.37A5.21,5.21,0,0,1,38.4,143.28Z"/></g></g></svg>