<svg xmlns="http://www.w3.org/2000/svg" viewBox="0 0 495.89 589.71"><defs><style>.cls-1{fill:#676767;}.cls-1,.cls-10,.cls-2,.cls-5,.cls-6{stroke:#020202;}.cls-1,.cls-10,.cls-11,.cls-12,.cls-13,.cls-14,.cls-15,.cls-16,.cls-17,.cls-18,.cls-19,.cls-2,.cls-20,.cls-21,.cls-22,.cls-23,.cls-25,.cls-3,.cls-4,.cls-5,.cls-6,.cls-8,.cls-9{stroke-miterlimit:10;}.cls-1,.cls-10,.cls-2,.cls-3,.cls-4,.cls-5,.cls-6,.cls-8{stroke-width:2px;}.cls-2{fill:#676766;}.cls-3{fill:#cfcece;}.cls-3,.cls-4,.cls-8,.cls-9{stroke:#000;}.cls-19,.cls-22,.cls-4,.cls-5{fill:none;}.cls-6{fill:#bababa;}.cls-11,.cls-16,.cls-18,.cls-20,.cls-7{fill:#2d2d2c;}.cls-8,.cls-9{fill:#424242;}.cls-9{opacity:0.68;}.cls-10,.cls-24{fill:#2d2e2e;}.cls-11,.cls-12,.cls-13,.cls-14,.cls-15,.cls-16,.cls-17,.cls-18,.cls-19,.cls-20,.cls-21,.cls-22,.cls-23,.cls-25{stroke:#1d1d1b;}.cls-12{fill:#696968;}.cls-13,.cls-17,.cls-20,.cls-21{stroke-width:0.5px;}.cls-14{fill:#686867;}.cls-15{fill:#fff;}.cls-15,.cls-16{stroke-width:2.5px;}.cls-17{fill:#020202;}.cls-18,.cls-19{stroke-width:1.5px;}.cls-18{opacity:0.82;}.cls-19{opacity:0.8;}.cls-21,.cls-25{fill:#6a6a69;}.cls-23{fill:#1d1d1b;}</style></defs><title>Risorsa 1</title><g id="Livello_2" data-name="Livello 2"><g id="Livello_1-2" data-name="Livello 1"><polygon class="cls-1" points="33.85 4.71 34.3 485.1 2.11 572.59 2.11 76.22 33.85 4.71"/><polygon class="cls-2" points="462.56 4.71 462.11 484.26 494.3 571.59 494.3 76.1 462.56 4.71"/><polyline class="cls-3" points="31.93 5.71 2.11 76.35 494.38 76.35 464.56 5.71"/><line class="cls-4" x1="33.85" y1="3.75" x2="464.57" y2="4.75"/><rect class="cls-5" x="2.11" y="78.15" width="492.26" height="510.56"/><line class="cls-5" x1="34.3" y1="485.1" x2="462.11" y2="484.26"/><polyline class="cls-6" points="494.3 293.55 2.11 293.55 34 254.66 462.91 254.66 494.8 293.55"/><rect class="cls-7" x="321.13" y="257.11" width="120.31" height="33.6"/><polygon class="cls-8" points="301.88 259.46 286.21 293.55 289.25 211 306.14 194.79 301.88 259.46"/><polygon class="cls-9" points="460.91 211.22 287.86 211.2 286.03 293.4 494.63 293.4 494.63 228.06 460.91 211.22"/><polyline class="cls-10" points="250.09 403.79 5.37 404.33 40.67 372.32 40.63 372.32 250.1 372.22 247.98 587.02 4.18 588.03 4.16 586.93 5.37 404.33"/><polyline class="cls-10" points="248.05 404.25 492.76 404.79 457.47 372.86 457.51 372.86 248.03 372.77 250.16 587.02 493.95 588.03 493.98 586.93 492.76 404.79"/><line class="cls-5" x1="25.27" y1="383.92" x2="474.87" y2="384.9"/><polyline class="cls-11" points="349.35 169.03 329.86 163.88 330.14 163.97 329.59 165.65 329.31 165.56 348.88 172.19 348.54 172.14 349.01 168.98"/><rect class="cls-11" x="359.23" y="136.32" width="3.24" height="34.94" rx="0.88" transform="translate(578.15 480.35) rotate(-146.73)"/><circle class="cls-12" cx="362.33" cy="151.27" r="3.19"/><circle class="cls-12" cx="350.03" cy="170.43" r="3.19"/><circle class="cls-13" cx="350.03" cy="170.43" r="1.57"/><polyline class="cls-11" points="327.43 133.47 323.98 153.34 324.01 153.04 322.25 152.84 322.21 153.13 324.36 132.58 324.26 132.91 327.33 133.8"/><rect class="cls-11" x="344.45" y="111.91" width="3.24" height="34.94" rx="0.88" transform="translate(422.14 -232.17) rotate(81.38)"/><rect class="cls-14" x="418.57" y="100.18" width="6" height="30.03" rx="3" transform="translate(574.15 -294.33) rotate(95.15)"/><rect class="cls-14" x="435.63" y="96.25" width="6" height="18.55" rx="3" transform="translate(22.54 -68.82) rotate(9.21)"/><circle class="cls-15" cx="439.52" cy="95.63" r="4.53"/><rect class="cls-14" x="436.59" y="80.93" width="6" height="17.45" rx="3"/><rect class="cls-11" x="416.35" y="76.31" width="45.74" height="5.97"/><circle class="cls-13" cx="439.6" cy="95.12" r="1.85"/><circle class="cls-16" cx="436.93" cy="115.52" r="4.53"/><circle class="cls-13" cx="436.93" cy="115.52" r="1.85"/><rect class="cls-14" x="387.33" y="103.35" width="6" height="39.59" rx="3" transform="translate(342.15 -283.31) rotate(65.73)"/><circle class="cls-16" cx="408.23" cy="113.91" r="4.53"/><circle class="cls-13" cx="408.23" cy="113.91" r="1.85"/><rect class="cls-11" x="367.77" y="127.13" width="6.16" height="9.57" transform="translate(-21.45 164.09) rotate(-24.27)"/><rect class="cls-12" x="365.14" y="118.14" width="3.37" height="32.91" transform="translate(-22.9 162.68) rotate(-24.27)"/><circle class="cls-12" cx="348.99" cy="129.08" r="3.19"/><circle class="cls-17" cx="348.99" cy="129.08" r="1.57"/><circle class="cls-12" cx="326.44" cy="132.27" r="3.19"/><circle class="cls-13" cx="326.44" cy="132.27" r="1.57"/><circle class="cls-13" cx="362.33" cy="151.27" r="1.57"/><polyline class="cls-7" points="304.23 70.39 48.61 70.39 73.72 13.25 329.75 13.25 304.63 70.39"/><polyline class="cls-18" points="266.69 75.81 266.7 105.48 48.64 105.42 48.63 75.15 302.77 75.35 266.7 105.48"/><line class="cls-19" x1="73.79" y1="75.35" x2="73.81" y2="88.63"/><line class="cls-19" x1="48.64" y1="105.43" x2="73.81" y2="88.63"/><rect class="cls-12" x="442.17" y="321.89" width="7.28" height="23.99" rx="3.16" transform="translate(885.74 675.46) rotate(-179)"/><rect class="cls-12" x="450.23" y="333.39" width="7.28" height="22.51" rx="3.16" transform="translate(959.24 81.25) rotate(115.26)"/><circle class="cls-15" cx="461.7" cy="347.65" r="5.5"/><rect class="cls-12" x="465.3" y="337.24" width="7.28" height="21.17" rx="3.16" transform="translate(822.36 -116.91) rotate(90.69)"/><rect class="cls-11" x="462.93" y="344.03" width="37.27" height="7.25" transform="translate(834.97 -129.71) rotate(90.69)"/><circle class="cls-20" cx="462.32" cy="347.75" r="2.24"/><circle class="cls-16" cx="445.92" cy="340.54" r="5.5"/><circle class="cls-21" cx="445.92" cy="340.54" r="2.24"/><rect class="cls-12" x="431.32" y="304.87" width="7.28" height="33.47" rx="3.16" transform="translate(764.09 -107.7) rotate(91)"/><circle class="cls-16" cx="446.02" cy="321.83" r="5.5"/><circle class="cls-21" cx="446.02" cy="321.83" r="2.24"/><rect class="cls-11" x="415.82" y="315.04" width="7.48" height="11.61" transform="translate(5.64 -7.25) rotate(1)"/><line class="cls-22" x1="324.88" y1="341.36" x2="341.3" y2="304.4"/><polyline class="cls-23" points="413.16 341.08 416.04 333.01 416.5 295.03 416.5 294.99 413.62 303.06 413.52 303.06 413.05 341.67"/><polyline class="cls-24" points="410.05 318.74 335.3 318.79 332.73 323.46 410.47 323.46 411.29 318.74"/><polyline class="cls-25" points="413.05 311.38 413.27 340.59 324.88 341.36 332.73 323.46 410.47 323.46 414.53 304.4"/><polyline class="cls-25" points="413.5 304.4 411.29 318.74 335.3 318.79 341.3 304.4 414.53 304.4"/></g></g></svg>