<svg xmlns="http://www.w3.org/2000/svg" xmlns:xlink="http://www.w3.org/1999/xlink" viewBox="0 0 231.8 231.8"><defs><style>.cls-1{opacity:0.5;}.cls-2{fill:url(#Sfumatura_senza_nome_2);}.cls-3{fill:#8e0300;}.cls-4{fill:#020202;}.cls-5{fill:#fff;}.cls-6{opacity:0.1;isolation:isolate;}.cls-7{fill:#fda57d;}.cls-8{fill:#fafffa;fill-rule:evenodd;}</style><linearGradient id="Sfumatura_senza_nome_2" x1="115.9" y1="71.08" x2="115.9" y2="-160.72" gradientTransform="translate(0 160.72)" gradientUnits="userSpaceOnUse"><stop offset="0" stop-color="gray" stop-opacity="0.25"/><stop offset="0.54" stop-color="gray" stop-opacity="0.12"/><stop offset="1" stop-color="gray" stop-opacity="0.1"/></linearGradient></defs><title>Risorsa 2</title><g id="Livello_2" data-name="Livello 2"><g id="Livello_1-2" data-name="Livello 1"><g class="cls-1"><circle class="cls-2" cx="115.9" cy="115.9" r="115.9"/></g><path class="cls-3" d="M178.6,126.4c0,37.7-27.1,56.3-62.3,56.3s-65.2-18.6-65.2-56.3,28.5-68.3,63.7-68.3S178.6,88.6,178.6,126.4Z"/><path class="cls-4" d="M116.3,183.2c-39.91,0-65.7-22.3-65.7-56.8,0-37.94,28.8-68.8,64.2-68.8s64.3,30.86,64.3,68.8C179.1,161.44,155,183.2,116.3,183.2ZM114.8,58.6C80,58.6,51.6,89,51.6,126.4c0,41.19,34.85,55.8,64.7,55.8,38.12,0,61.8-21.38,61.8-55.8C178.1,89,149.7,58.6,114.8,58.6Z"/><path class="cls-5" d="M116.3,229.1a113.34,113.34,0,0,0,62.4-18.7c-4.2-22.8-20.1-24.2-20.1-24.2H70.9s-15,1.2-19.7,22.3A112.84,112.84,0,0,0,116.3,229.1Z"/><path class="cls-4" d="M116.3,229.6a112.85,112.85,0,0,1-65.39-20.69l-.27-.19.07-.33c4.73-21.21,20-22.68,20.15-22.69H158.6c.21,0,16.37,1.7,20.59,24.61l.06.33-.27.18A113.53,113.53,0,0,1,116.3,229.6ZM51.76,208.28a112.8,112.8,0,0,0,126.39,1.88c-4.17-21.81-19.44-23.45-19.59-23.46H70.9C70.79,186.71,56.4,188.13,51.76,208.28Z"/><g class="cls-6"><path d="M97.4,158.4h35.1v28.1A17.54,17.54,0,0,1,115,204.1h-.1a17.52,17.52,0,0,1-17.5-17.5V158.4Z"/></g><path class="cls-7" d="M100.7,157.1h28.4a3.35,3.35,0,0,1,3.4,3.3v24.7A17.52,17.52,0,0,1,115,202.6h0a17.52,17.52,0,0,1-17.5-17.5V160.4a3.18,3.18,0,0,1,3.2-3.3Z"/><path class="cls-4" d="M115,203.1a18,18,0,0,1-18-18V160.4a3.55,3.55,0,0,1,1-2.63,3.75,3.75,0,0,1,2.71-1.17h28.4a3.85,3.85,0,0,1,3.9,3.8v24.7A18,18,0,0,1,115,203.1Zm-14.3-45.5a2.74,2.74,0,0,0-2,.86,2.55,2.55,0,0,0-.71,1.91V185.1a17,17,0,1,0,34,0V160.4a2.86,2.86,0,0,0-2.9-2.8Z"/><g class="cls-6"><path d="M97.5,171.6a50.46,50.46,0,0,0,35.1.1v-4.3H97.5v4.2Z"/></g><circle class="cls-7" cx="115.1" cy="123.7" r="50.3"/><path class="cls-4" d="M115.1,174.5a50.8,50.8,0,1,1,50.8-50.8A50.86,50.86,0,0,1,115.1,174.5Zm0-100.6a49.8,49.8,0,1,0,49.8,49.8A49.86,49.86,0,0,0,115.1,73.9Z"/><g class="cls-6"><path d="M57.1,127s31.3-3.8,55-34.2c0,0,31.3,34.5,53.1,30.7,0,0,12.7-13.3,0-26.6s-22.5-30-39.2-27.8S88.7,72.3,79.8,80.2,57.1,127,57.1,127Z"/></g><path class="cls-3" d="M57.1,126.4s31.3-3.8,55-34.2c0,0,31.3,34.5,53.1,30.7,0,0,12.7-13.3,0-26.6s-22.5-30-39.2-27.8S88.7,71.6,79.9,79.6,57.1,126.4,57.1,126.4Z"/><path class="cls-4" d="M56.35,127l.28-.76c.57-1.59,14.14-39,22.93-47,7.42-6.74,22.73-8.48,37.54-10.17,3.08-.35,6-.68,8.83-1.06,13.61-1.79,22.68,8.66,32.27,19.73,2.37,2.74,4.82,5.56,7.36,8.22,12.88,13.49.13,27.16,0,27.3l-.11.11-.16,0a20.62,20.62,0,0,1-3.61.31c-20.3,0-45.89-26.78-49.55-30.73-23.51,29.8-54.66,33.89-55,33.93ZM128.92,68.8a21.46,21.46,0,0,0-2.85.2c-2.87.37-5.91.72-8.86,1-14.65,1.67-29.8,3.4-37,9.92-7.92,7.2-20.33,40.24-22.38,45.81,5.08-.87,32.68-6.73,53.85-33.89l.36-.47.4.44c.31.35,31.21,34.09,52.48,30.58,1.29-1.42,11.62-13.51-.11-25.79-2.56-2.68-5-5.52-7.39-8.26C148.74,78.34,140.47,68.8,128.92,68.8Z"/><ellipse class="cls-7" cx="64.8" cy="123.7" rx="4.7" ry="8.8"/><path class="cls-4" d="M64.8,133c-2.92,0-5.2-4.09-5.2-9.3s2.28-9.3,5.2-9.3,5.2,4.09,5.2,9.3S67.72,133,64.8,133Zm0-17.6c-2.28,0-4.2,3.8-4.2,8.3s1.92,8.3,4.2,8.3,4.2-3.8,4.2-8.3S67.08,115.4,64.8,115.4Z"/><ellipse class="cls-7" cx="165.4" cy="123.7" rx="4.7" ry="8.8"/><path class="cls-4" d="M165.4,133c-2.92,0-5.2-4.09-5.2-9.3s2.28-9.3,5.2-9.3,5.2,4.09,5.2,9.3S168.32,133,165.4,133Zm0-17.6c-2.28,0-4.2,3.8-4.2,8.3s1.92,8.3,4.2,8.3,4.2-3.8,4.2-8.3S167.68,115.4,165.4,115.4Z"/><polygon class="cls-5" points="96.5 185.3 96.5 210.3 116.2 203.3 96.5 185.3"/><path d="M96,211V184.17l21.15,19.32Zm1-24.58v23.16l18.25-6.48Z"/><polygon class="cls-5" points="132.8 185.8 132.8 210.3 115.2 203.3 132.8 185.8"/><path d="M133.3,211l-19-7.56,19-18.88Zm-17.21-7.92,16.21,6.44V187Z"/><circle cx="116.8" cy="215" r="3.3"/><path class="cls-4" d="M116.8,218.8a3.8,3.8,0,1,1,3.8-3.8A3.8,3.8,0,0,1,116.8,218.8Zm0-6.6a2.8,2.8,0,1,0,2.8,2.8A2.81,2.81,0,0,0,116.8,212.2Z"/><path class="cls-8" d="M146.8,13.74a44.82,44.82,0,0,0-6.4.5c-4.2-8.2-15.1-12.3-26-12.3h0c-10.9,0-21.7,4.1-25.9,12.3a44.82,44.82,0,0,0-6.4-.5c-17,0-30.8,10.7-30.8,23.9,0,12.4,12.3,22.6,27.8,23.7v24.3A3.27,3.27,0,0,0,80.6,88a11.74,11.74,0,0,0,2.7,1.5,48.61,48.61,0,0,0,7.8,2,140.34,140.34,0,0,0,23.2,1.7,140.34,140.34,0,0,0,23.2-1.7,39.93,39.93,0,0,0,7.8-2A11.74,11.74,0,0,0,148,88a4.07,4.07,0,0,0,1.5-2.5V61.24s27.9-11.4,27.9-23.7C177.6,24.44,163.8,13.74,146.8,13.74ZM84,16.34c.3-.1.6-.1.9-.2m-2,0c.4.1.7.1,1,.2m-8.8,2.6a5.7,5.7,0,0,1,1.1-1.1"/><path d="M114.3,93.74A140.52,140.52,0,0,1,91,92a50.35,50.35,0,0,1-7.89-2,12.59,12.59,0,0,1-2.82-1.57,3.78,3.78,0,0,1-1.7-2.75V61.8C63,60.5,50.8,50,50.8,37.64c0-13.46,14-24.4,31.3-24.4a44.24,44.24,0,0,1,6.12.45C92.3,6.12,102.29,1.44,114.4,1.44s22.25,4.8,26.28,12.25a44.24,44.24,0,0,1,6.12-.45c9.8,0,18.82,3.46,24.77,9.5a20.5,20.5,0,0,1,6.33,14.81c0,11.91-24.66,22.66-27.9,24v24a4.65,4.65,0,0,1-1.67,2.88A12.46,12.46,0,0,1,145.49,90a40.65,40.65,0,0,1-7.91,2A140.31,140.31,0,0,1,114.3,93.74ZM82.1,14.24c-16.71,0-30.3,10.5-30.3,23.4,0,11.92,12,22.11,27.33,23.2l.47,0V85.64a2.73,2.73,0,0,0,1.26,2,11.22,11.22,0,0,0,2.63,1.46,49.13,49.13,0,0,0,7.71,2,139.28,139.28,0,0,0,23.1,1.69,139.5,139.5,0,0,0,23.11-1.69,39.65,39.65,0,0,0,7.71-2,11.27,11.27,0,0,0,2.58-1.43,3.64,3.64,0,0,0,1.3-2.15V60.9l.31-.12c.28-.12,27.59-11.42,27.59-23.24a19.5,19.5,0,0,0-6-14.1c-5.76-5.85-14.53-9.2-24.06-9.2a45,45,0,0,0-6.33.49l-.35,0-.16-.31c-3.75-7.31-13.78-12-25.56-12S92.69,7.16,89,14.47l-.17.31-.35,0A45,45,0,0,0,82.1,14.24Zm-6.6,5-.8-.6a6.07,6.07,0,0,1,1.19-1.19l.62.78A5.06,5.06,0,0,0,75.5,19.24Zm8.66-2.43L84,16.19l-.21.62a2.61,2.61,0,0,0-.42-.08l-.54-.11.24-1,.45.09a3.41,3.41,0,0,1,.48.09c.14,0,.28-.06.42-.09a1.63,1.63,0,0,0,.37-.08l.32.95a3.37,3.37,0,0,1-.53.12A2.45,2.45,0,0,0,84.16,16.81Z"/><ellipse class="cls-5" cx="81.21" cy="17.39" rx="6.9" ry="2.8" transform="translate(-1.58 10.85) rotate(-7.57)"/></g></g></svg>