<svg xmlns="http://www.w3.org/2000/svg" xmlns:xlink="http://www.w3.org/1999/xlink" viewBox="0 0 231.8 231.8"><defs><style>.cls-1{opacity:0.5;}.cls-2{fill:url(#Sfumatura_senza_nome);}.cls-3{fill:#a4a5a4;}.cls-4{opacity:0.1;isolation:isolate;}.cls-5{fill:#fdb797;}.cls-6{fill:#333;}.cls-7{fill:#858585;}.cls-8{fill:#38d39f;}</style><linearGradient id="Sfumatura_senza_nome" x1="115.9" y1="71.08" x2="115.9" y2="-160.72" gradientTransform="translate(0 160.72)" gradientUnits="userSpaceOnUse"><stop offset="0" stop-color="gray" stop-opacity="0.25"/><stop offset="0.54" stop-color="gray" stop-opacity="0.12"/><stop offset="1" stop-color="gray" stop-opacity="0.1"/></linearGradient></defs><title>Risorsa 3</title><g id="Livello_2" data-name="Livello 2"><g id="Livello_1-2" data-name="Livello 1"><g class="cls-1"><circle class="cls-2" cx="115.9" cy="115.9" r="115.9"/></g><path class="cls-3" d="M115.3,228.7A113.34,113.34,0,0,0,177.7,210c-4.2-22.8-20.1-24.2-20.1-24.2H69.9s-15,1.2-19.7,22.3A112.12,112.12,0,0,0,115.3,228.7Z"/><path d="M115.3,229.2a112.24,112.24,0,0,1-65.39-20.69l-.27-.19.07-.33c4.73-21.21,20-22.68,20.15-22.69H157.6c.21,0,16.37,1.7,20.59,24.61l.06.33-.27.18A113.61,113.61,0,0,1,115.3,229.2ZM50.76,207.89A111.25,111.25,0,0,0,115.3,228.2a112.48,112.48,0,0,0,61.85-18.44C173,188,157.71,186.31,157.56,186.3H69.9C69.79,186.31,55.4,187.73,50.76,207.89Z"/><g class="cls-4"><path d="M97.3,158.4h35.1v28.1A17.52,17.52,0,0,1,114.9,204h0a17.6,17.6,0,0,1-17.6-17.5h0V158.4Z"/></g><path class="cls-5" d="M100.7,157.1h28.4a3.29,3.29,0,0,1,3.3,3.4v24.7a17.52,17.52,0,0,1-17.5,17.5h0a17.46,17.46,0,0,1-17.5-17.5h0V160.5a3.23,3.23,0,0,1,3.3-3.4Z"/><path d="M114.9,203.2a18,18,0,0,1-18-18V160.5a3.66,3.66,0,0,1,1-2.72,3.82,3.82,0,0,1,2.8-1.18h28.4a3.81,3.81,0,0,1,3.8,3.9v24.7A18,18,0,0,1,114.9,203.2Zm-14.2-45.6a2.81,2.81,0,0,0-2.07.87,2.68,2.68,0,0,0-.73,2V185.2a17,17,0,0,0,34,0V160.5a2.79,2.79,0,0,0-2.8-2.9Z"/><g class="cls-4"><path d="M97.4,171.6a50.46,50.46,0,0,0,35.1.1v-4.3H97.4Z"/></g><circle class="cls-5" cx="115" cy="123.7" r="50.3"/><path d="M115,174.5a50.8,50.8,0,1,1,50.8-50.8A50.86,50.86,0,0,1,115,174.5Zm0-100.6a49.8,49.8,0,1,0,49.8,49.8A49.86,49.86,0,0,0,115,73.9Z"/><ellipse class="cls-5" cx="65.7" cy="121.5" rx="4.7" ry="8.8"/><path d="M65.7,130.8c-2.92,0-5.2-4.08-5.2-9.3s2.28-9.3,5.2-9.3,5.2,4.08,5.2,9.3S68.62,130.8,65.7,130.8Zm0-17.6c-2.28,0-4.2,3.8-4.2,8.3s1.92,8.3,4.2,8.3,4.2-3.8,4.2-8.3S68,113.2,65.7,113.2Z"/><ellipse class="cls-5" cx="164" cy="121.5" rx="4.7" ry="8.8"/><path d="M164,130.8c-2.92,0-5.2-4.08-5.2-9.3s2.28-9.3,5.2-9.3,5.2,4.08,5.2,9.3S166.92,130.8,164,130.8Zm0-17.6c-2.28,0-4.2,3.8-4.2,8.3s1.92,8.3,4.2,8.3,4.2-3.8,4.2-8.3S166.28,113.2,164,113.2Z"/><path class="cls-6" d="M101.5,135.8H88.7a5.29,5.29,0,0,1-5.3-5.4v-2.1a5.11,5.11,0,0,1,1.45-3.75,5.37,5.37,0,0,1,3.85-1.65h12.8a5.29,5.29,0,0,1,5.3,5.4v2.1A5.36,5.36,0,0,1,101.5,135.8ZM88.7,124.9a3.39,3.39,0,0,0-2.41,1,3.15,3.15,0,0,0-.89,2.33v2.14a3.28,3.28,0,0,0,3.3,3.4h12.8a3.36,3.36,0,0,0,3.3-3.4v-2.1a3.28,3.28,0,0,0-3.3-3.4Z"/><path class="cls-6" d="M141.3,135.7H128.5a5.29,5.29,0,0,1-5.3-5.4v-2a5.36,5.36,0,0,1,5.3-5.4h12.8a5.29,5.29,0,0,1,5.3,5.4v2.1A5.31,5.31,0,0,1,141.3,135.7Zm-12.8-10.8a3.36,3.36,0,0,0-3.3,3.4v2a3.28,3.28,0,0,0,3.3,3.4h12.8a3.34,3.34,0,0,0,3.3-3.3v-2.1a3.28,3.28,0,0,0-3.3-3.4Z"/><path class="cls-6" d="M124.22,126c-12.17-3.55-18.68-.12-18.74-.08l-1-1.76c.29-.16,7.31-3.85,20.26-.08Z"/><path class="cls-7" d="M149.7,87.2,162,115.9C162.1,115.9,177.2,96.9,149.7,87.2Z"/><path d="M162,116.4h-.33L148.79,86.35l1.08.38c15.66,5.52,17.68,14.09,16.62,20.31C165.68,111.75,162.63,116.4,162,116.4ZM150.62,88.07l11.5,26.84c1.3-1.87,4.75-7.59,3.23-13.76C164,95.64,159,91.24,150.62,88.07Z"/><path class="cls-6" d="M145.6,130.3a1,1,0,0,1-.74-.33,1,1,0,0,1,.07-1.41l18.4-16.5a1,1,0,0,1,1.34,1.48L146.27,130A1,1,0,0,1,145.6,130.3Z"/><path class="cls-7" d="M80.2,87.2,67.9,115.9S52.8,96.9,80.2,87.2Z"/><path d="M68,116.87l-.52-.66c-.25-.31-6-7.73-3.72-15.82C65.47,94.55,70.93,90,80,86.73l1.08-.38Zm11.25-28.8c-8.12,3.08-13,7.31-14.53,12.59-1.79,6.24,1.69,12.23,3,14.23Z"/><path class="cls-6" d="M84.3,130.3a1,1,0,0,1-.66-.25L65,113.55a1,1,0,0,1,1.32-1.5L85,128.55a1,1,0,0,1-.66,1.75Z"/><polygon class="cls-8" points="107.9 203.3 111.7 209.8 120.4 209.8 123.6 202.5 107.9 203.3"/><path d="M120.73,210.3h-9.32l-4.36-7.46,17.33-.88Zm-8.74-1h8.08l2.75-6.26-14.07.72Z"/><polygon class="cls-3" points="96.1 184.9 96.1 209.9 115.9 203 96.1 184.9"/><path d="M95.6,210.6V183.77l21.26,19.43Zm1-24.57V209.2l18.34-6.4Z"/><polygon class="cls-8" points="119.3 228.7 120.4 209.8 111.5 209.8 111.7 228.7 119.3 228.7"/><path d="M119.77,229.2H111.2L111,209.3h9.94Zm-7.57-1h6.63l1-17.9H112Z"/><polygon class="cls-3" points="132.4 185.4 132.4 209.9 114.9 203 132.4 185.4"/><path d="M132.9,210.63,114,203.19l18.89-19Zm-17.11-7.82,16.11,6.36V186.61Z"/></g></g></svg>